<svg xmlns="http://www.w3.org/2000/svg" viewBox="0 0 136.01 193.28"><defs><style>.cls-1,.cls-4{fill:#263759;}.cls-2,.cls-5{fill:#42ace1;}.cls-3{fill:#b1d7f2;}.cls-4,.cls-5{fill-rule:evenodd;}</style></defs><title>Asset 1</title><g id="Layer_2" data-name="Layer 2"><g id="Layer_1-2" data-name="Layer 1"><polygon class="cls-1" points="73.33 108.63 22.27 70.79 73.33 32.73 73.33 0 0 54.29 0 87.09 73.33 141.59 73.33 108.63"/><polygon class="cls-2" points="22.27 70.79 73.33 32.73 73.33 0 0 54.29 0 87.09 22.27 70.79"/><polygon class="cls-2" points="62.67 84.65 113.74 122.48 62.67 160.55 62.67 193.28 136.01 138.99 136.01 106.19 62.67 51.69 62.67 84.65"/><polygon class="cls-3" points="62.67 84.65 113.74 122.48 136.01 138.99 136.01 106.19 62.67 51.69 62.67 84.65"/><path class="cls-4" d="M112.43,25.82A18.57,18.57,0,1,1,93.85,44.4a18.57,18.57,0,0,1,18.58-18.58"/><path class="cls-5" d="M23.58,167.45a18.57,18.57,0,1,1,18.57-18.57,18.57,18.57,0,0,1-18.57,18.57"/></g></g></svg>