<svg xmlns="http://www.w3.org/2000/svg" width="104.94" height="40.144" viewBox="0 0 104.94 40.144">
  <g id="Group_27" data-name="Group 27" transform="translate(-16.014 -7.246)">
    <path id="Path_44" data-name="Path 44" d="M122.842,124.477c-1.345-.462-3.278.17-3.658.17s-.571-.127-.571-.254-.286-.38-.445-.412-.284.063-.252.222.285.539.095.6a1.328,1.328,0,0,1-.856-.19c-.285-.159-1.331-.539-1.109-.1s1.359.573,2.532.51,1.536.41,2.487.664.561.728.307.76-.222.126.444.633-.477.587-.667.365a3.77,3.77,0,0,0-1.362-.657,3.362,3.362,0,0,1-1.618-.467,5.151,5.151,0,0,0-2.273-.542c-.349-.032-1.2.266-1.615.013s-.772-.834-.993-.961-1.046,0-1.459-.19-.158-.793-.127-1.109.285-.317.856-.222.475-.254.348-.348a3.138,3.138,0,0,0-1.68-.286c-.476.158-1.021.591-1.712.444-.384-.082-.349-.285-.539-.38a10.315,10.315,0,0,0-1.966-.57.9.9,0,0,0-.7.443c-.063.127.222.6,0,.381s-1.923-.645-2.7-1.11-1.928.085-1.168.253.794-.243,1.175.348-1.248.935-1.67.977-1.313-.586-1.523-.712-.433-.359-.687-.359-.507.38-.253.549a1.883,1.883,0,0,1,.676.76,5.6,5.6,0,0,1-2.282,1.733c-.549.042-.507-.634-.634-.338a2,2,0,0,1-1.437,1.015c-.845.169-1.611-.32-1.754.333-.188.866-10.071,10.026-11.138,10.065-.515.019-.55-.845-.846-1.1s-.338.127-.845.719-.663.39-.787.347-.439.413-.439-.136.422-1.015,2.113-1.522,1.057-.55,1.564-.973,0-.507-.465-.894.3-.881.887-1.3.819-1.467.643-1.584a2.241,2.241,0,0,0-2.05.507,3.9,3.9,0,0,1-2.4,1.279c-.972.033-4.046,4.141-4.046,4.141s2.774-8.48,16.8-14.534,29.795,3.015,29.795,3.015" transform="translate(-55.625 -98.429)" fill="#fff" opacity="0.5"/>
    <g id="Group_26" data-name="Group 26">
      <path id="Path_45" data-name="Path 45" d="M140.457,167.655c.013.013.023.024.036.036-.368.9-.737,1.8-1.117,2.72h1.769a2.594,2.594,0,0,0,.545-.081,3.725,3.725,0,0,0,2.652-2.22q2.721-6.656,5.471-13.3a2.065,2.065,0,0,0,.141-1.118,1.236,1.236,0,0,0-1.313-1.01l-2.174,0s-3.773,9.154-4.856,11.794a5.29,5.29,0,0,1-2.642,2.8,3.683,3.683,0,0,1-2.109.411,1.781,1.781,0,0,1-1.633-1.595,2.993,2.993,0,0,1,.27-1.544q2.016-4.9,4.038-9.795a2.077,2.077,0,0,0,.159-.864,1.114,1.114,0,0,0-1.244-1.2h-2.174c-.654,1.6-4.324,10.5-4.94,12.114a7.521,7.521,0,0,0-.587,2.906,2.427,2.427,0,0,0,1.884,2.478,6.57,6.57,0,0,0,3.9-.07,9.3,9.3,0,0,0,3.733-2.3c.059-.057.128-.1.193-.157" transform="translate(-95.919 -123.052)" fill="#fff"/>
      <path id="Path_46" data-name="Path 46" d="M294.084,154.794a.013.013,0,0,0,0-.007.03.03,0,0,0,0-.009c-.02-.062-.041-.149-.077-.249-.014-.04-.029-.079-.045-.117s-.017-.044-.026-.07l0,0a2.349,2.349,0,0,0-1.5-1.275,6.374,6.374,0,0,0-3.57-.1,9.112,9.112,0,0,0-4.2,2.428c-.058.057-.119.108-.226.2.02-.1.027-.127.031-.159a5.482,5.482,0,0,0,.127-.975,1.212,1.212,0,0,0-1.306-1.255l-1.222,0h-.7c-1.788,4.35-4.53,11.013-6.325,15.361a2.56,2.56,0,0,1-.36.592,3.339,3.339,0,0,1-1.313.976c-.32.137-.653.244-.978.36h3.977a4.176,4.176,0,0,0,1.884-.744,2.715,2.715,0,0,0,1.027-1.209q2.018-4.909,4.039-9.817a5.162,5.162,0,0,1,1.607-2.142,4.345,4.345,0,0,1,3.08-1.074,1.792,1.792,0,0,1,1.69,1.516,3.022,3.022,0,0,1-.26,1.629q-2.045,4.955-4.09,9.91a2.5,2.5,0,0,1-.345.575,3.087,3.087,0,0,1-1.174.917c-.368.169-.753.3-1.11.437h3.815a4.157,4.157,0,0,0,1.327-.413,3.44,3.44,0,0,0,1.249-.99,4.268,4.268,0,0,1-.725-1.439,5.816,5.816,0,0,1,.318-3.788c.471-1.2,1.007-2.375,1.462-3.582a11.293,11.293,0,0,1,2.789-4.214c.254-.225.974-.858,1.182-1,0,0-.032-.2-.04-.278" transform="translate(-200.643 -123.112)" fill="#fff"/>
      <path id="Path_47" data-name="Path 47" d="M355.776,156.366a4.121,4.121,0,0,0-2.657-2.79,7.166,7.166,0,0,0-3.922-.285,12.4,12.4,0,0,0-7.93,4.958A10.532,10.532,0,0,0,340,160.7c-.507,1.276-1.05,2.54-1.527,3.827a4.809,4.809,0,0,0-.178,2.855,4.161,4.161,0,0,0,2.924,3.048,7.485,7.485,0,0,0,3.7.216,12.347,12.347,0,0,0,6.172-3.013.2.2,0,0,0,.048-.074c-.021-.1-.047-.194-.062-.3a4.876,4.876,0,0,1,.162-2.161h-2.082a.372.372,0,0,0-.046.038,7.463,7.463,0,0,1-1.957,1.467,4.8,4.8,0,0,1-2.631.573,2.252,2.252,0,0,1-2.072-1.84,3.341,3.341,0,0,1,.167-1.853c.316-.837.67-1.66,1-2.492a6.868,6.868,0,0,1,2.358-3.037,5.449,5.449,0,0,1,3.317-1.218,2.351,2.351,0,0,1,2.431,2.818c-.022.161-.049.323-.076.493h1.611c.02-.05.041-.1.061-.149a8.924,8.924,0,0,1,1.355-2.334,13.949,13.949,0,0,1,1.1-1.2" transform="translate(-249.274 -123.395)" fill="#fff" fill-rule="evenodd"/>
      <path id="Path_48" data-name="Path 48" d="M397.429,163.034h11.438l1.343-3.283a5.317,5.317,0,0,0,.385-2.859,4.1,4.1,0,0,0-2.7-3.313,7.137,7.137,0,0,0-4.041-.325,12.436,12.436,0,0,0-7.612,4.542,8.946,8.946,0,0,0-1.355,2.334c-.576,1.44-1.178,2.869-1.733,4.315a4.882,4.882,0,0,0-.272,2.48,4.1,4.1,0,0,0,2.662,3.343,6.944,6.944,0,0,0,3.914.364,12.328,12.328,0,0,0,8.117-5.05h0l.006-.01.023-.03c.128-.174.235-.361.364-.565h0l.013-.019h-4.1l-.238.274a7.311,7.311,0,0,1-1.652,1.248,4.873,4.873,0,0,1-2.8.662,2.252,2.252,0,0,1-2.066-1.8,3.212,3.212,0,0,1,.014-1.358c.035-.191.285-.953.285-.953m8.98-3.717a5.857,5.857,0,0,1-.107.688c-.011.051-.093.092-.15.127-.026.015-.069,0-.1,0h-7.366a6.655,6.655,0,0,1,1.245-1.6,6.4,6.4,0,0,1,3.242-1.763,3.194,3.194,0,0,1,1.892.156,2.315,2.315,0,0,1,1.349,2.394" transform="translate(-289.698 -123.367)" fill="#fff" fill-rule="evenodd"/>
      <path id="Path_49" data-name="Path 49" d="M230.222,163.034h11.438L243,159.751a5.322,5.322,0,0,0,.385-2.859,4.1,4.1,0,0,0-2.7-3.313,7.138,7.138,0,0,0-4.041-.325,12.438,12.438,0,0,0-7.612,4.542,8.96,8.96,0,0,0-1.355,2.334c-.576,1.44-1.178,2.869-1.734,4.315a4.883,4.883,0,0,0-.272,2.48,4.1,4.1,0,0,0,2.662,3.343,6.945,6.945,0,0,0,3.914.364,12.326,12.326,0,0,0,8.116-5.05h0l.006-.01.023-.03c.127-.174.234-.361.363-.565h0l.013-.019h-4.1l-.238.274a7.289,7.289,0,0,1-1.652,1.248,4.873,4.873,0,0,1-2.8.662,2.251,2.251,0,0,1-2.066-1.8,3.215,3.215,0,0,1,.014-1.358c.035-.191.285-.953.285-.953m8.98-3.717a5.794,5.794,0,0,1-.108.688c-.011.051-.093.092-.15.127-.026.015-.068,0-.1,0h-7.366a6.65,6.65,0,0,1,1.245-1.6,6.4,6.4,0,0,1,3.241-1.763,3.194,3.194,0,0,1,1.892.156,2.315,2.315,0,0,1,1.35,2.394" transform="translate(-166.067 -123.367)" fill="#fff" fill-rule="evenodd"/>
      <path id="Path_50" data-name="Path 50" d="M197.61,153.308a5.039,5.039,0,0,0-2.837-.361,7.433,7.433,0,0,0-3.509,1.426c-.148.105-.293.215-.441.323l-.032-.02c.252-.615.5-1.235.767-1.882H187.3l-6.552,15.976a1.323,1.323,0,0,1-.135.262,3.925,3.925,0,0,1-1.729,1.382c-.095.039-.192.072-.287.108v0h3.441a3.655,3.655,0,0,0,.789-.156,3.612,3.612,0,0,0,2.39-2.138c1.121-2.77,2.272-5.528,3.4-8.294a5.1,5.1,0,0,1,3.449-3,4.6,4.6,0,0,1,1.414-.129,13.184,13.184,0,0,1,4.478-3.294c-.109-.064-.224-.14-.348-.2" transform="translate(-131.295 -123.136)" fill="#fff" fill-rule="evenodd"/>
    </g>
    <path id="Path_51" data-name="Path 51" d="M123.2,125.346a69.561,69.561,0,0,0-9.809-4.225l0,0a39.135,39.135,0,0,0-11.892-1.967,27.933,27.933,0,0,0-14.572,3.839h0l-.01.008c-5.82,3.523-11.9,11.768-11.958,11.851l.021.019-.025-.011c-.024.055-2.359,5.556.305,10.281l.068-.038c-2.616-4.638-.378-10.033-.305-10.2a27.1,27.1,0,0,1,6.276-3.972l.006,0a10.8,10.8,0,0,0,0,6.294l.051-.1a10.462,10.462,0,0,1,.045-6.238,56.034,56.034,0,0,1,19.919-5.015h.014c5.828-.586,21.786-.466,21.946-.465Zm-21.931.331c-.438-.557-1.365-1.525-2.347-2.55a8.825,8.825,0,0,1,.931-.241,9.071,9.071,0,0,1,1.415-.163Zm.078-2.957a9.946,9.946,0,0,1,2.188.182,23.917,23.917,0,0,0-2.169,2.761Zm-1.509.09a8.847,8.847,0,0,0-.976.254c-1.419-1.479-2.928-2.99-3.224-3.286a30.724,30.724,0,0,1,5.631-.545v3.411a9.117,9.117,0,0,0-1.431.165m-1.059.28a9.6,9.6,0,0,0-2.537,1.3c-3.925-.772-8.427-1.295-9.19-1.381a26.471,26.471,0,0,1,8.495-3.207c.18.179,1.752,1.751,3.232,3.292m.06.063c.972,1.014,1.894,2,2.344,2.571a26.169,26.169,0,0,0-4.835-1.318,9.489,9.489,0,0,1,2.49-1.254m2.313,2.643a66.32,66.32,0,0,0-7.237.983,10.257,10.257,0,0,1,2.345-2.31,26.452,26.452,0,0,1,4.892,1.327m.3-.1a26.089,26.089,0,0,1,2.174-2.774,12.324,12.324,0,0,1,2.063.612,17.585,17.585,0,0,0-4.237,2.162m4.342-2.118a17.715,17.715,0,0,1,3.377,1.837c-3.025.067-5.809.175-7.679.356a15.947,15.947,0,0,1,4.3-2.192m-2.107-.724a40.365,40.365,0,0,1,3.232-3.187,42.317,42.317,0,0,1,6.316,1.49c-.723.191-4.3,1.154-7.439,2.338a12.518,12.518,0,0,0-2.109-.64m3.13-3.2a40.785,40.785,0,0,0-3.22,3.185,10.026,10.026,0,0,0-2.249-.192v-3.409l.147,0a35.508,35.508,0,0,1,5.322.418M81.254,130.856A29.537,29.537,0,0,0,75.24,134.6c1.113-1.466,6.174-7.935,11.182-11.2a19.05,19.05,0,0,0-3.251,3.639,14.244,14.244,0,0,0-1.844,3.783l-.072.034m1.98-3.772a18.537,18.537,0,0,1,3.708-4.012c.313.034,5.075.567,9.214,1.377a10.131,10.131,0,0,0-2.351,2.351,51.486,51.486,0,0,0-12.385,3.976,14.213,14.213,0,0,1,1.813-3.693m26.073-1.676a17.987,17.987,0,0,0-3.405-1.874c3.406-1.278,7.3-2.293,7.473-2.337a72.2,72.2,0,0,1,9.759,4.128c-1.12-.008-7.84-.048-13.827.083" transform="translate(-53.944 -98.261)" fill="#fff"/>
    <path id="Path_52" data-name="Path 52" d="M58.552,143.251s14.269-37.476,53.313-18.936c0,0-35.928-23.839-53.313,18.936" transform="translate(-42.538 -97.181)" fill="#fff"/>
    <path id="Path_53" data-name="Path 53" d="M75.48,106.937h8.2s2.828.127,4.413-4.057l1.639-4.39c.1-.267.2-.531.3-.8l5.238-14.03c1.5-3.965,1.827-4.708,2.766-7.167,0,0,2.734-2.441,10.218-.651,1.4.333,2.563.59,3.482.769l.017,0,.164.032.028,0c4.173.924,5.389-.082,6.732-3.495a9.974,9.974,0,0,0,.657-2.973,3.3,3.3,0,0,0,.026-.845,10.084,10.084,0,0,0-.317-2.548c-.816,4.02-4.623,4.193-6.341,4.059q-1.572-.19-3.926-.588a27.187,27.187,0,0,0-9.076-.293,14.687,14.687,0,0,0-4.948,1.846,16.717,16.717,0,0,0-4.762,3.85l-.015.016a13.3,13.3,0,0,1-.548,5.825A128,128,0,0,1,83.642,95.6S78.9,106.232,75.48,106.937" transform="translate(-55.055 -59.548)" fill="#fff"/>
    <g id="Group_25" data-name="Group 25" transform="translate(0 57)">
      <path id="Path_54" data-name="Path 54" d="M275.189,135.384a1.378,1.378,0,0,0,.526-.1,1.679,1.679,0,0,0,.5-.338l.054.047a1.527,1.527,0,0,1-1.217.677,1.01,1.01,0,0,1-.5-.115.885.885,0,0,1-.327-.318,1.132,1.132,0,0,1-.151-.466,1.72,1.72,0,0,1,.035-.561,2.237,2.237,0,0,1,.211-.585,1.777,1.777,0,0,1,.368-.484,1.673,1.673,0,0,1,.525-.33,1.813,1.813,0,0,1,.683-.121,1.415,1.415,0,0,1,.163.011,1.046,1.046,0,0,1,.2.045.914.914,0,0,1,.181.083.3.3,0,0,1,.118.128.314.314,0,0,1,.024.107.44.44,0,0,1-.012.143.308.308,0,0,1-.065.127.183.183,0,0,1-.137.062.13.13,0,0,1-.11-.038.419.419,0,0,1-.08-.181.566.566,0,0,0-.057-.125.368.368,0,0,0-.107-.113.537.537,0,0,0-.166-.074.674.674,0,0,0-.235-.015.9.9,0,0,0-.41.146,1.348,1.348,0,0,0-.324.3,1.9,1.9,0,0,0-.234.4,2.024,2.024,0,0,0-.137.43,1.89,1.89,0,0,0-.044.472,1.033,1.033,0,0,0,.089.4.652.652,0,0,0,.241.276.725.725,0,0,0,.4.1" transform="translate(-201.88 -165.275)" fill="#c5c5c5"/>
      <path id="Path_55" data-name="Path 55" d="M283.867,134.185a2.159,2.159,0,0,1,.211-.593,1.9,1.9,0,0,1,.35-.472,1.555,1.555,0,0,1,.463-.312,1.373,1.373,0,0,1,.555-.113,1.079,1.079,0,0,1,.517.118.949.949,0,0,1,.35.321,1.155,1.155,0,0,1,.169.469,1.61,1.61,0,0,1-.021.558,2.341,2.341,0,0,1-.2.582,1.853,1.853,0,0,1-.342.475,1.559,1.559,0,0,1-.46.321,1.326,1.326,0,0,1-.561.119,1.137,1.137,0,0,1-.52-.113.931.931,0,0,1-.356-.309,1.113,1.113,0,0,1-.175-.466,1.634,1.634,0,0,1,.024-.585m.392-.059a2.625,2.625,0,0,0-.053.47,1.236,1.236,0,0,0,.062.437.693.693,0,0,0,.223.322.654.654,0,0,0,.421.124.875.875,0,0,0,.448-.112,1.191,1.191,0,0,0,.335-.292,1.681,1.681,0,0,0,.234-.4,2.633,2.633,0,0,0,.14-.449,2.268,2.268,0,0,0,.05-.458,1.28,1.28,0,0,0-.065-.437.717.717,0,0,0-.22-.325.619.619,0,0,0-.412-.127.878.878,0,0,0-.445.113,1.156,1.156,0,0,0-.338.292,1.751,1.751,0,0,0-.237.4,2.5,2.5,0,0,0-.143.443" transform="translate(-209.104 -165.275)" fill="#c5c5c5"/>
      <path id="Path_56" data-name="Path 56" d="M294.031,133.24a.153.153,0,0,0-.05-.131c-.032-.04-.115-.062-.25-.065l.012-.071a2.568,2.568,0,0,0,.389-.107,1.546,1.546,0,0,0,.347-.173h.053l-.1.493a1.916,1.916,0,0,1,.487-.356,1.168,1.168,0,0,1,.54-.137.758.758,0,0,1,.336.069.583.583,0,0,1,.223.184.627.627,0,0,1,.106.276.964.964,0,0,1-.012.339l-.327,1.55a.72.72,0,0,0-.023.208.188.188,0,0,0,.044.119.2.2,0,0,0,.11.056,1.23,1.23,0,0,0,.178.021l-.011.077h-.113c-.075,0-.156,0-.243,0l-.255,0c-.119,0-.227,0-.323,0s-.175,0-.235,0l.012-.071a.962.962,0,0,0,.184-.015.3.3,0,0,0,.133-.059.356.356,0,0,0,.1-.122.976.976,0,0,0,.068-.208l.327-1.532a.552.552,0,0,0,0-.273.4.4,0,0,0-.11-.185.5.5,0,0,0-.19-.107.788.788,0,0,0-.238-.035.866.866,0,0,0-.421.121,1.675,1.675,0,0,0-.392.3l-.362,1.71a.637.637,0,0,0-.024.2.206.206,0,0,0,.045.122.212.212,0,0,0,.11.062.975.975,0,0,0,.184.024l-.012.077h-.1c-.063,0-.136,0-.216,0l-.241,0-.252,0c-.089,0-.167,0-.234,0h-.119l.011-.077a.9.9,0,0,0,.173-.015.334.334,0,0,0,.133-.056.322.322,0,0,0,.1-.122,1.026,1.026,0,0,0,.068-.211l.35-1.668c.02-.087.033-.155.038-.2" transform="translate(-216.006 -165.274)" fill="#c5c5c5"/>
      <path id="Path_57" data-name="Path 57" d="M306.171,127.685a1.2,1.2,0,0,1,.819-.276.769.769,0,0,1,.279.051.53.53,0,0,1,.22.157.2.2,0,0,1,.05.1.225.225,0,0,1-.006.1.255.255,0,0,1-.051.092.3.3,0,0,1-.077.065.183.183,0,0,1-.131.011.245.245,0,0,1-.136-.125q-.03-.054-.059-.1a.36.36,0,0,0-.074-.081.342.342,0,0,0-.107-.056.508.508,0,0,0-.158-.021.422.422,0,0,0-.273.087.67.67,0,0,0-.175.219,1.335,1.335,0,0,0-.107.288q-.039.154-.069.3l-.065.327h.748l-.042.178h-.748l-.475,2.25q-.048.213.05.279a.883.883,0,0,0,.413.071l-.012.071c-.091,0-.2-.006-.332-.006H304.9c-.113,0-.212,0-.3.006l.012-.071a.715.715,0,0,0,.385-.089.424.424,0,0,0,.161-.273l.475-2.238h-.469l.024-.1a1.066,1.066,0,0,0,.327-.051.267.267,0,0,0,.2-.2l.048-.232a1.328,1.328,0,0,1,.416-.739" transform="translate(-224.462 -161.366)" fill="#c5c5c5"/>
      <path id="Path_58" data-name="Path 58" d="M313.208,134.031a1.383,1.383,0,0,0,.065.991.692.692,0,0,0,.635.327,1.158,1.158,0,0,0,.567-.142,2.406,2.406,0,0,0,.525-.41l.065.041a2.958,2.958,0,0,1-.627.6,1.251,1.251,0,0,1-.721.217.88.88,0,0,1-.484-.128.913.913,0,0,1-.312-.333,1.208,1.208,0,0,1-.139-.466,1.762,1.762,0,0,1,.026-.528,2.6,2.6,0,0,1,.2-.576,1.844,1.844,0,0,1,.33-.481,1.517,1.517,0,0,1,.46-.33,1.357,1.357,0,0,1,.582-.121.919.919,0,0,1,.427.089.632.632,0,0,1,.264.246.869.869,0,0,1,.11.371,1.636,1.636,0,0,1-.035.469q-.036.16-.166.16Zm1.425-.178a.307.307,0,0,0,.122-.018c.025-.012.045-.047.056-.107a1.257,1.257,0,0,0,.024-.3.734.734,0,0,0-.062-.276.479.479,0,0,0-.169-.2.5.5,0,0,0-.291-.077.885.885,0,0,0-.35.071,1.013,1.013,0,0,0-.3.2,1.436,1.436,0,0,0-.244.312,1.63,1.63,0,0,0-.166.395Z" transform="translate(-230.508 -165.275)" fill="#c5c5c5"/>
      <path id="Path_59" data-name="Path 59" d="M321.738,133.24a.152.152,0,0,0-.05-.131.182.182,0,0,0-.083-.045.85.85,0,0,0-.172-.021l.012-.071a2.3,2.3,0,0,0,.395-.107,1.583,1.583,0,0,0,.341-.173h.06l-.119.564a1.3,1.3,0,0,1,.475-.433,1.059,1.059,0,0,1,.445-.119.328.328,0,0,1,.2.068.213.213,0,0,1,.057.234.374.374,0,0,1-.122.214.3.3,0,0,1-.193.077.218.218,0,0,1-.115-.03.142.142,0,0,1-.063-.112.11.11,0,0,0-.051-.081.192.192,0,0,0-.092-.021.434.434,0,0,0-.217.059.823.823,0,0,0-.187.146.985.985,0,0,0-.143.19.672.672,0,0,0-.077.193l-.309,1.467a1.082,1.082,0,0,0-.027.178.23.23,0,0,0,.039.136.189.189,0,0,0,.113.063,1.028,1.028,0,0,0,.184.027l-.011.077h-.107c-.063,0-.133,0-.211,0s-.159,0-.247,0l-.246,0c-.085,0-.163,0-.235,0h-.119l.012-.077c.063,0,.124-.01.181-.018a.223.223,0,0,0,.133-.059.614.614,0,0,0,.161-.327l.35-1.668c.02-.087.033-.155.039-.2" transform="translate(-236.487 -165.274)" fill="#c5c5c5"/>
      <path id="Path_60" data-name="Path 60" d="M330,134.031a1.384,1.384,0,0,0,.066.991.691.691,0,0,0,.635.327,1.157,1.157,0,0,0,.567-.142,2.414,2.414,0,0,0,.526-.41l.065.041a2.958,2.958,0,0,1-.627.6,1.25,1.25,0,0,1-.721.217.879.879,0,0,1-.484-.128.908.908,0,0,1-.312-.333,1.2,1.2,0,0,1-.139-.466,1.762,1.762,0,0,1,.027-.528,2.6,2.6,0,0,1,.2-.576,1.846,1.846,0,0,1,.33-.481,1.519,1.519,0,0,1,.46-.33,1.359,1.359,0,0,1,.582-.121.922.922,0,0,1,.428.089.636.636,0,0,1,.264.246.869.869,0,0,1,.11.371,1.638,1.638,0,0,1-.035.469q-.036.16-.166.16Zm1.425-.178a.306.306,0,0,0,.122-.018c.026-.012.045-.047.057-.107a1.273,1.273,0,0,0,.024-.3.74.74,0,0,0-.062-.276.484.484,0,0,0-.17-.2.5.5,0,0,0-.291-.077.886.886,0,0,0-.351.071,1.014,1.014,0,0,0-.3.2,1.436,1.436,0,0,0-.243.312,1.621,1.621,0,0,0-.166.395Z" transform="translate(-242.922 -165.275)" fill="#c5c5c5"/>
      <path id="Path_61" data-name="Path 61" d="M338.546,133.24a.153.153,0,0,0-.05-.131c-.031-.04-.115-.062-.25-.065l.012-.071a2.552,2.552,0,0,0,.389-.107,1.54,1.54,0,0,0,.347-.173h.053l-.1.493a1.914,1.914,0,0,1,.487-.356,1.168,1.168,0,0,1,.54-.137.757.757,0,0,1,.335.069.581.581,0,0,1,.223.184.627.627,0,0,1,.106.276.977.977,0,0,1-.012.339l-.327,1.55a.712.712,0,0,0-.023.208.187.187,0,0,0,.045.119.2.2,0,0,0,.109.056,1.23,1.23,0,0,0,.179.021l-.012.077h-.113c-.075,0-.156,0-.243,0l-.255,0c-.119,0-.227,0-.323,0s-.176,0-.235,0l.012-.071a.96.96,0,0,0,.184-.015.3.3,0,0,0,.134-.059.356.356,0,0,0,.1-.122.975.975,0,0,0,.068-.208l.327-1.532a.556.556,0,0,0,0-.273.4.4,0,0,0-.11-.185.5.5,0,0,0-.19-.107.787.787,0,0,0-.238-.035.865.865,0,0,0-.421.121,1.67,1.67,0,0,0-.392.3l-.362,1.71a.636.636,0,0,0-.023.2.2.2,0,0,0,.045.122.21.21,0,0,0,.109.062.978.978,0,0,0,.184.024l-.011.077h-.1c-.063,0-.136,0-.217,0l-.241,0-.252,0c-.089,0-.167,0-.234,0h-.119l.012-.077a.894.894,0,0,0,.172-.015.334.334,0,0,0,.133-.056.319.319,0,0,0,.1-.122,1.028,1.028,0,0,0,.068-.211l.35-1.668c.02-.087.033-.155.039-.2" transform="translate(-248.919 -165.274)" fill="#c5c5c5"/>
      <path id="Path_62" data-name="Path 62" d="M351.232,135.384a1.378,1.378,0,0,0,.526-.1,1.682,1.682,0,0,0,.5-.338l.054.047a1.527,1.527,0,0,1-1.218.677,1.011,1.011,0,0,1-.5-.115.884.884,0,0,1-.326-.318,1.133,1.133,0,0,1-.151-.466,1.708,1.708,0,0,1,.036-.561,2.246,2.246,0,0,1,.211-.585,1.788,1.788,0,0,1,.368-.484,1.673,1.673,0,0,1,.525-.33,1.814,1.814,0,0,1,.683-.121,1.411,1.411,0,0,1,.163.011,1.046,1.046,0,0,1,.2.045.913.913,0,0,1,.181.083.3.3,0,0,1,.118.128.309.309,0,0,1,.024.107.44.44,0,0,1-.012.143.314.314,0,0,1-.065.127.185.185,0,0,1-.137.062.13.13,0,0,1-.11-.038.419.419,0,0,1-.08-.181.566.566,0,0,0-.057-.125.369.369,0,0,0-.107-.113.536.536,0,0,0-.166-.074.675.675,0,0,0-.235-.015.9.9,0,0,0-.41.146,1.349,1.349,0,0,0-.324.3,1.9,1.9,0,0,0-.234.4,2.024,2.024,0,0,0-.137.43,1.874,1.874,0,0,0-.044.472,1.043,1.043,0,0,0,.089.4.653.653,0,0,0,.241.276.726.726,0,0,0,.4.1" transform="translate(-258.106 -165.275)" fill="#c5c5c5"/>
      <path id="Path_63" data-name="Path 63" d="M360.252,134.031a1.383,1.383,0,0,0,.065.991.691.691,0,0,0,.635.327,1.157,1.157,0,0,0,.567-.142,2.413,2.413,0,0,0,.526-.41l.065.041a2.958,2.958,0,0,1-.626.6,1.25,1.25,0,0,1-.721.217.879.879,0,0,1-.484-.128.911.911,0,0,1-.312-.333,1.209,1.209,0,0,1-.139-.466,1.77,1.77,0,0,1,.026-.528,2.614,2.614,0,0,1,.2-.576,1.845,1.845,0,0,1,.33-.481,1.519,1.519,0,0,1,.46-.33,1.359,1.359,0,0,1,.582-.121.921.921,0,0,1,.427.089.635.635,0,0,1,.264.246.87.87,0,0,1,.11.371,1.637,1.637,0,0,1-.035.469c-.024.107-.079.16-.166.16Zm1.425-.178a.306.306,0,0,0,.122-.018c.026-.012.045-.047.057-.107a1.289,1.289,0,0,0,.024-.3.736.736,0,0,0-.063-.276.479.479,0,0,0-.169-.2.5.5,0,0,0-.291-.077.886.886,0,0,0-.35.071,1.014,1.014,0,0,0-.3.2,1.437,1.437,0,0,0-.243.312,1.621,1.621,0,0,0-.166.395Z" transform="translate(-265.291 -165.275)" fill="#c5c5c5"/>
      <path id="Path_64" data-name="Path 64" d="M375.243,127.685a1.2,1.2,0,0,1,.819-.276.771.771,0,0,1,.279.051.531.531,0,0,1,.22.157.2.2,0,0,1,.05.1.228.228,0,0,1-.005.1.256.256,0,0,1-.051.092.3.3,0,0,1-.077.065.184.184,0,0,1-.131.011.245.245,0,0,1-.136-.125c-.02-.036-.04-.068-.06-.1a.37.37,0,0,0-.074-.081.342.342,0,0,0-.107-.056.5.5,0,0,0-.157-.021.422.422,0,0,0-.273.087.67.67,0,0,0-.175.219,1.35,1.35,0,0,0-.107.288c-.026.1-.048.2-.068.3l-.065.327h.748l-.042.178h-.748l-.475,2.25q-.048.213.051.279a.881.881,0,0,0,.412.071l-.012.071c-.091,0-.2-.006-.332-.006h-.757c-.112,0-.212,0-.3.006l.012-.071a.715.715,0,0,0,.386-.089.424.424,0,0,0,.161-.273l.475-2.238h-.469l.024-.1a1.066,1.066,0,0,0,.327-.051.268.268,0,0,0,.2-.2l.047-.232a1.326,1.326,0,0,1,.416-.739" transform="translate(-275.533 -161.366)" fill="#c5c5c5"/>
      <path id="Path_65" data-name="Path 65" d="M381.94,134.185a2.166,2.166,0,0,1,.211-.593,1.9,1.9,0,0,1,.35-.472,1.558,1.558,0,0,1,.463-.312,1.374,1.374,0,0,1,.555-.113,1.077,1.077,0,0,1,.517.118.947.947,0,0,1,.35.321,1.154,1.154,0,0,1,.169.469,1.615,1.615,0,0,1-.021.558,2.351,2.351,0,0,1-.2.582,1.855,1.855,0,0,1-.342.475,1.562,1.562,0,0,1-.46.321,1.325,1.325,0,0,1-.561.119,1.137,1.137,0,0,1-.52-.113.934.934,0,0,1-.356-.309,1.113,1.113,0,0,1-.175-.466,1.64,1.64,0,0,1,.024-.585m.392-.059a2.659,2.659,0,0,0-.053.47,1.24,1.24,0,0,0,.062.437.694.694,0,0,0,.223.322.655.655,0,0,0,.421.124.875.875,0,0,0,.448-.112,1.187,1.187,0,0,0,.335-.292,1.673,1.673,0,0,0,.235-.4,2.638,2.638,0,0,0,.14-.449,2.266,2.266,0,0,0,.05-.458,1.279,1.279,0,0,0-.065-.437.719.719,0,0,0-.22-.325.62.62,0,0,0-.413-.127.878.878,0,0,0-.445.113,1.155,1.155,0,0,0-.338.292,1.749,1.749,0,0,0-.237.4,2.523,2.523,0,0,0-.143.443" transform="translate(-281.618 -165.275)" fill="#c5c5c5"/>
      <path id="Path_66" data-name="Path 66" d="M392.087,133.24a.152.152,0,0,0-.05-.131.181.181,0,0,0-.083-.045.85.85,0,0,0-.172-.021l.012-.071a2.284,2.284,0,0,0,.395-.107,1.571,1.571,0,0,0,.341-.173h.06l-.119.564a1.3,1.3,0,0,1,.475-.433,1.06,1.06,0,0,1,.445-.119.329.329,0,0,1,.2.068.213.213,0,0,1,.056.234.372.372,0,0,1-.122.214.3.3,0,0,1-.193.077.219.219,0,0,1-.116-.03.142.142,0,0,1-.062-.112.11.11,0,0,0-.05-.081.193.193,0,0,0-.092-.021.435.435,0,0,0-.217.059.814.814,0,0,0-.187.146.968.968,0,0,0-.143.19.665.665,0,0,0-.077.193l-.309,1.467a1.08,1.08,0,0,0-.027.178.232.232,0,0,0,.039.136.19.19,0,0,0,.113.063,1.023,1.023,0,0,0,.184.027l-.012.077h-.107c-.063,0-.133,0-.211,0s-.16,0-.247,0l-.246,0c-.085,0-.163,0-.235,0h-.119l.012-.077c.063,0,.123-.01.181-.018a.221.221,0,0,0,.133-.059.613.613,0,0,0,.161-.327l.35-1.668c.02-.087.033-.155.039-.2" transform="translate(-288.502 -165.274)" fill="#c5c5c5"/>
      <path id="Path_67" data-name="Path 67" d="M405.679,127.685a1.2,1.2,0,0,1,.819-.276.769.769,0,0,1,.279.051.531.531,0,0,1,.22.157.2.2,0,0,1,.05.1.229.229,0,0,1-.006.1.255.255,0,0,1-.051.092.3.3,0,0,1-.077.065.183.183,0,0,1-.131.011.245.245,0,0,1-.136-.125,1.117,1.117,0,0,0-.06-.1.358.358,0,0,0-.074-.081.347.347,0,0,0-.107-.056.507.507,0,0,0-.157-.021.421.421,0,0,0-.273.087.675.675,0,0,0-.176.219,1.349,1.349,0,0,0-.106.288q-.038.154-.069.3l-.065.327h.748l-.042.178h-.748l-.475,2.25q-.048.213.05.279a.884.884,0,0,0,.413.071l-.012.071c-.091,0-.2-.006-.332-.006H404.4c-.112,0-.213,0-.3.006l.012-.071a.716.716,0,0,0,.386-.089.424.424,0,0,0,.161-.273l.475-2.238h-.469l.024-.1a1.064,1.064,0,0,0,.327-.051.268.268,0,0,0,.2-.2l.047-.232a1.328,1.328,0,0,1,.416-.739" transform="translate(-298.036 -161.366)" fill="#c5c5c5"/>
      <path id="Path_68" data-name="Path 68" d="M415.035,135.223a.169.169,0,0,0,.047.131.2.2,0,0,0,.086.045.967.967,0,0,0,.169.021l-.017.077a2.657,2.657,0,0,0-.389.106,1.311,1.311,0,0,0-.341.173h-.059l.119-.546a2.256,2.256,0,0,1-.51.4,1.111,1.111,0,0,1-.547.145.681.681,0,0,1-.323-.068.486.486,0,0,1-.2-.184.6.6,0,0,1-.077-.276,1.337,1.337,0,0,1,.026-.338l.333-1.556a.33.33,0,0,0-.033-.3.437.437,0,0,0-.294-.107l.024-.089c.079,0,.144,0,.2,0s.119,0,.2,0c.063,0,.126,0,.19,0s.129,0,.2,0l-.422,1.967a.661.661,0,0,0,.045.492.394.394,0,0,0,.359.171.73.73,0,0,0,.235-.041,1.3,1.3,0,0,0,.237-.11,1.517,1.517,0,0,0,.22-.157A1.817,1.817,0,0,0,414.7,135l.35-1.647a.36.36,0,0,0-.027-.308.426.426,0,0,0-.294-.095l.023-.089a1.038,1.038,0,0,0,.14,0c.061,0,.149,0,.264,0l.137,0,.125,0h.119l-.463,2.174a1.356,1.356,0,0,0-.035.2" transform="translate(-304.608 -165.392)" fill="#c5c5c5"/>
      <path id="Path_69" data-name="Path 69" d="M424.1,133.349a.323.323,0,0,0,.255.1.477.477,0,0,0,.232-.065.612.612,0,0,0,.2-.178l.036.059a.877.877,0,0,1-.326.306.823.823,0,0,1-.381.1.457.457,0,0,1-.389-.16.552.552,0,0,1-.056-.463l.451-2.119h-.422l.024-.089a.892.892,0,0,0,.5-.25,1.652,1.652,0,0,0,.353-.582h.125l-.155.742h.677l-.041.178h-.677l-.434,2.06a.414.414,0,0,0,.03.363" transform="translate(-312.49 -163.286)" fill="#c5c5c5"/>
      <path id="Path_70" data-name="Path 70" d="M431.848,135.223a.169.169,0,0,0,.047.131.2.2,0,0,0,.086.045.977.977,0,0,0,.169.021l-.018.077a2.675,2.675,0,0,0-.389.106,1.323,1.323,0,0,0-.341.173h-.06l.119-.546a2.255,2.255,0,0,1-.51.4,1.111,1.111,0,0,1-.546.145.682.682,0,0,1-.324-.068.488.488,0,0,1-.2-.184.6.6,0,0,1-.077-.276,1.338,1.338,0,0,1,.027-.338l.333-1.556a.329.329,0,0,0-.033-.3.439.439,0,0,0-.294-.107l.023-.089c.079,0,.145,0,.2,0s.119,0,.2,0c.063,0,.127,0,.19,0s.129,0,.2,0l-.422,1.967a.657.657,0,0,0,.045.492.393.393,0,0,0,.359.171.722.722,0,0,0,.234-.041,1.3,1.3,0,0,0,.238-.11,1.56,1.56,0,0,0,.22-.157,1.814,1.814,0,0,0,.187-.184l.35-1.647a.36.36,0,0,0-.027-.308.426.426,0,0,0-.294-.095l.024-.089a1.031,1.031,0,0,0,.139,0c.061,0,.149,0,.264,0l.136,0c.044,0,.085,0,.125,0h.118l-.463,2.174a1.351,1.351,0,0,0-.035.2" transform="translate(-317.04 -165.392)" fill="#c5c5c5"/>
      <path id="Path_71" data-name="Path 71" d="M439.336,133.24a.153.153,0,0,0-.05-.131.181.181,0,0,0-.083-.045.857.857,0,0,0-.173-.021l.012-.071a2.293,2.293,0,0,0,.395-.107,1.583,1.583,0,0,0,.341-.173h.059l-.119.564a1.3,1.3,0,0,1,.475-.433,1.061,1.061,0,0,1,.446-.119.326.326,0,0,1,.2.068.213.213,0,0,1,.057.234.374.374,0,0,1-.122.214.3.3,0,0,1-.193.077.219.219,0,0,1-.115-.03.142.142,0,0,1-.063-.112.11.11,0,0,0-.05-.081.2.2,0,0,0-.092-.021.433.433,0,0,0-.217.059.824.824,0,0,0-.187.146.983.983,0,0,0-.142.19.665.665,0,0,0-.077.193l-.309,1.467a1.057,1.057,0,0,0-.027.178.23.23,0,0,0,.039.136.189.189,0,0,0,.113.063,1.024,1.024,0,0,0,.184.027l-.011.077h-.107c-.063,0-.133,0-.211,0s-.16,0-.247,0l-.247,0c-.085,0-.163,0-.235,0h-.119l.012-.077c.063,0,.123-.01.181-.018a.222.222,0,0,0,.133-.059.616.616,0,0,0,.16-.327l.35-1.668c.02-.087.033-.155.039-.2" transform="translate(-323.438 -165.274)" fill="#c5c5c5"/>
      <path id="Path_72" data-name="Path 72" d="M447.595,134.031a1.384,1.384,0,0,0,.065.991.692.692,0,0,0,.636.327,1.155,1.155,0,0,0,.566-.142,2.408,2.408,0,0,0,.526-.41l.065.041a2.964,2.964,0,0,1-.626.6,1.251,1.251,0,0,1-.721.217.88.88,0,0,1-.484-.128.913.913,0,0,1-.312-.333,1.213,1.213,0,0,1-.139-.466,1.762,1.762,0,0,1,.027-.528,2.627,2.627,0,0,1,.2-.576,1.852,1.852,0,0,1,.33-.481,1.519,1.519,0,0,1,.46-.33,1.358,1.358,0,0,1,.582-.121.923.923,0,0,1,.428.089.634.634,0,0,1,.264.246.873.873,0,0,1,.11.371,1.636,1.636,0,0,1-.035.469q-.036.16-.166.16Zm1.425-.178a.3.3,0,0,0,.122-.018c.026-.012.045-.047.057-.107a1.273,1.273,0,0,0,.024-.3.73.73,0,0,0-.062-.276.483.483,0,0,0-.169-.2.5.5,0,0,0-.291-.077.886.886,0,0,0-.35.071,1.01,1.01,0,0,0-.3.2,1.413,1.413,0,0,0-.244.312,1.632,1.632,0,0,0-.166.395Z" transform="translate(-329.871 -165.275)" fill="#c5c5c5"/>
    </g>
  </g>
</svg>
