<svg xmlns="http://www.w3.org/2000/svg" width="262.083" height="85.578" viewBox="0 0 262.083 85.578">
  <g id="Group_29" data-name="Group 29" transform="translate(-73.448 -437.421)">
    <path id="Path_74" data-name="Path 74" d="M135.769,516.027c.032.031.059.061.091.09-.921,2.247-1.845,4.493-2.795,6.808h4.426a6.575,6.575,0,0,0,1.365-.2,9.325,9.325,0,0,0,6.637-5.555q6.809-16.656,13.691-33.278a5.17,5.17,0,0,0,.353-2.8,3.094,3.094,0,0,0-3.288-2.529l-5.439-.011s-9.443,22.908-12.152,29.515a13.24,13.24,0,0,1-6.612,7,9.219,9.219,0,0,1-5.277,1.029,4.458,4.458,0,0,1-4.086-3.992,7.487,7.487,0,0,1,.676-3.864q5.046-12.26,10.106-24.512a5.185,5.185,0,0,0,.4-2.162,2.789,2.789,0,0,0-3.113-3.014h-5.441c-1.636,4-10.821,26.281-12.364,30.315a18.827,18.827,0,0,0-1.468,7.273,6.076,6.076,0,0,0,4.715,6.2,16.448,16.448,0,0,0,9.754-.175,23.276,23.276,0,0,0,9.342-5.75C135.434,516.276,135.608,516.158,135.769,516.027Z" fill="#b2b2ff"/>
    <path id="Path_75" data-name="Path 75" d="M298.364,486.917a10.31,10.31,0,0,0-6.648-6.982,17.929,17.929,0,0,0-9.817-.713,31.018,31.018,0,0,0-19.845,12.408,26.281,26.281,0,0,0-3.17,6.146c-1.268,3.194-2.627,6.356-3.823,9.577a12.027,12.027,0,0,0-.445,7.144c.967,3.937,3.576,6.352,7.319,7.629a18.723,18.723,0,0,0,9.263.54,30.907,30.907,0,0,0,15.446-7.541.523.523,0,0,0,.121-.185c-.053-.25-.12-.486-.157-.746a12.2,12.2,0,0,1,.407-5.407H281.8a1.1,1.1,0,0,0-.116.094,18.629,18.629,0,0,1-4.9,3.671,12.011,12.011,0,0,1-6.582,1.434,5.64,5.64,0,0,1-5.188-4.606,8.377,8.377,0,0,1,.418-4.635c.791-2.1,1.678-4.156,2.5-6.236a17.2,17.2,0,0,1,5.9-7.6,13.639,13.639,0,0,1,8.3-3.047,5.885,5.885,0,0,1,6.084,7.052c-.057.4-.123.81-.19,1.234h4.031c.051-.126.1-.25.153-.375a22.389,22.389,0,0,1,3.39-5.84,34.818,34.818,0,0,1,2.76-3.014" fill="#b2b2ff" fill-rule="evenodd"/>
    <path id="Path_76" data-name="Path 76" d="M302.438,503.675h28.625l3.362-8.216a13.327,13.327,0,0,0,.963-7.154,10.251,10.251,0,0,0-6.754-8.292,17.846,17.846,0,0,0-10.114-.813,31.116,31.116,0,0,0-19.048,11.365,22.424,22.424,0,0,0-3.391,5.84c-1.441,3.6-2.947,7.18-4.338,10.8a12.2,12.2,0,0,0-.682,6.207,10.249,10.249,0,0,0,6.665,8.364,17.363,17.363,0,0,0,9.794.912,30.848,30.848,0,0,0,20.311-12.638h0l.016-.024c.019-.025.039-.049.058-.075.319-.435.586-.906.908-1.415h0l.034-.048H318.593l-.6.687a18.3,18.3,0,0,1-4.135,3.123,12.187,12.187,0,0,1-7,1.655,5.632,5.632,0,0,1-5.17-4.5,8.035,8.035,0,0,1,.036-3.4C301.811,505.581,302.438,503.675,302.438,503.675Zm22.475-9.3a14.748,14.748,0,0,1-.269,1.722c-.028.129-.233.229-.375.317-.065.038-.17.006-.262.006H305.573a16.644,16.644,0,0,1,3.117-4.012,16,16,0,0,1,8.112-4.414,7.99,7.99,0,0,1,4.732.389A5.794,5.794,0,0,1,324.913,494.374Z" fill="#b2b2ff" fill-rule="evenodd"/>
    <path id="Path_77" data-name="Path 77" d="M184.859,503.675h28.623l3.362-8.216a13.317,13.317,0,0,0,.963-7.154,10.25,10.25,0,0,0-6.753-8.292,17.845,17.845,0,0,0-10.113-.813,31.116,31.116,0,0,0-19.049,11.365,22.424,22.424,0,0,0-3.391,5.84c-1.441,3.6-2.948,7.18-4.339,10.8a12.216,12.216,0,0,0-.68,6.207,10.248,10.248,0,0,0,6.662,8.364,17.37,17.37,0,0,0,9.795.912,30.845,30.845,0,0,0,20.312-12.638h0l.016-.024c.019-.025.038-.049.057-.075.318-.435.587-.906.909-1.415h0l.032-.048H201.012l-.6.687a18.221,18.221,0,0,1-4.132,3.123,12.194,12.194,0,0,1-7,1.655,5.63,5.63,0,0,1-5.17-4.5,8.019,8.019,0,0,1,.035-3.4C184.232,505.581,184.859,503.675,184.859,503.675Zm22.473-9.3a14.538,14.538,0,0,1-.269,1.722c-.028.129-.232.229-.375.317-.064.038-.17.006-.26.006H187.994a16.613,16.613,0,0,1,3.115-4.012,16.009,16.009,0,0,1,8.112-4.414,8,8,0,0,1,4.734.389A5.794,5.794,0,0,1,207.332,494.374Z" fill="#b2b2ff" fill-rule="evenodd"/>
    <path id="Path_78" data-name="Path 78" d="M190.265,479.912a12.614,12.614,0,0,0-7.1-.9,18.6,18.6,0,0,0-8.782,3.569c-.371.263-.733.539-1.1.809-.022-.017-.053-.035-.079-.051.63-1.538,1.256-3.09,1.92-4.709H164.455l-16.4,39.98a3.383,3.383,0,0,1-.337.656,9.843,9.843,0,0,1-4.328,3.46c-.237.1-.48.179-.719.268l0,.007h8.611a9.643,9.643,0,0,0,7.957-5.74c2.806-6.933,5.685-13.835,8.517-20.758a12.769,12.769,0,0,1,8.63-7.52,11.5,11.5,0,0,1,3.538-.323s3.352-4.4,11.206-8.242C190.864,480.256,190.575,480.065,190.265,479.912Z" fill="#b2b2ff" fill-rule="evenodd"/>
    <path id="Path_79" data-name="Path 79" d="M126.56,458.163c0-.005,5.36-5.262,21.315-1.445,2.982.708,5.464,1.257,7.423,1.638a.263.263,0,0,1,.037.008l.349.067a.419.419,0,0,1,.06.01c8.9,1.97,11.49-.173,14.352-7.45a21.259,21.259,0,0,0,1.4-6.337,7.007,7.007,0,0,0,.055-1.8,21.5,21.5,0,0,0-.676-5.432c-1.739,8.568-9.855,8.939-13.518,8.652q-3.353-.4-8.37-1.253-11.721-1.988-19.349-.626a31.4,31.4,0,0,0-10.549,3.936,35.692,35.692,0,0,0-10.151,8.208l-.032.033a28.353,28.353,0,0,1-1.168,12.419c-2.549,8.552-7.74,19.879-12.337,30.038,0,0-10.106,22.667-17.4,24.17H95.491s6.029.271,9.408-8.649Z" fill="#b2b2ff"/>
    <path id="Path_80" data-name="Path 80" d="M73.546,495.76s31.315-32.988,137.275-21.605l.094-.19s-88.834-24.443-137.467,21.682Z" fill="#b2b2ff"/>
    <path id="Path_81" data-name="Path 81" d="M258.2,484.032c-.019-.131-.039-.264-.047-.341a.023.023,0,0,0-.006-.017.046.046,0,0,0,0-.023c-.049-.155-.1-.371-.194-.622-.035-.1-.072-.2-.111-.293-.025-.06-.043-.109-.066-.173l-.012,0a5.513,5.513,0,0,0-.78-1.231,4.1,4.1,0,0,0-1.054-1.011l-.01.028a6.841,6.841,0,0,0-1.906-.976,15.962,15.962,0,0,0-8.936-.255A22.812,22.812,0,0,0,234.56,485.2c-.144.143-.3.271-.565.51.048-.241.066-.319.077-.4a13.747,13.747,0,0,0,.318-2.441,3.034,3.034,0,0,0-3.27-3.14l-3.058,0h-1.755c-4.475,10.886-11.336,27.561-15.83,38.442a6.421,6.421,0,0,1-.9,1.48,8.367,8.367,0,0,1-3.287,2.443c-.8.342-1.634.61-2.445.9H213.8a10.459,10.459,0,0,0,4.714-1.862,6.789,6.789,0,0,0,2.57-3.025q5.051-12.283,10.106-24.566a12.918,12.918,0,0,1,4.024-5.361,10.883,10.883,0,0,1,7.709-2.689,4.487,4.487,0,0,1,4.23,3.795,7.557,7.557,0,0,1-.652,4.077q-5.115,12.4-10.233,24.8a6.209,6.209,0,0,1-.866,1.44,7.714,7.714,0,0,1-2.938,2.3c-.922.421-1.884.752-2.778,1.094h9.774a9.061,9.061,0,0,0,7.391-4.645l10.325-25.067C258.661,488.993,258.675,486.035,258.2,484.032Z" fill="#b2b2ff"/>
  </g>
</svg>
