<svg xmlns="http://www.w3.org/2000/svg" xmlns:xlink="http://www.w3.org/1999/xlink" width="61.167" height="61.167" viewBox="0 0 61.167 61.167">
  <defs>
    <clipPath id="clip-path">
      <circle id="Ellipse_1" data-name="Ellipse 1" cx="30.583" cy="30.583" r="30.583" fill="none"/>
    </clipPath>
  </defs>
  <g id="Group_7" data-name="Group 7" clip-path="url(#clip-path)">
    <g id="Group_6" data-name="Group 6" transform="translate(8.442 11.128)">
      <g id="Group_5" data-name="Group 5" transform="translate(0 10.477)">
        <path id="Path_32" data-name="Path 32" d="M-173.871,157.406a.672.672,0,0,0,.108-.244l-.151-.16a1.03,1.03,0,0,0,.472-.069c-.057-.212-.136-.418-.191-.631a1.272,1.272,0,0,1,.116.066c.147.348.224.343.509.322l-.067-.216h.145s0,0,.029.04l.123.2.22,0c-.078-.311-.078-.311-1.407-1.884.088-.459.088-.459-.285-.844l-.213.059v-.162s0,0,.136-.02l.407.15c.261-.124.468-.223.431-.924h0c-.349-.48-.363-.5-.14-.838l.173.14s0,.007-.138.116l.2.465c.606.181,1.045.759,1.74.727a.821.821,0,0,1-.134-.468,1.952,1.952,0,0,0,.411.367l0-.017,0-.017,0-.017,0-.017,0-.017,0-.017,0-.017,0-.017,0-.017,0-.017,0-.017,0-.017,0-.017,0-.017,0-.017,0-.017,0-.017,0-.017,0-.017,0-.017,0-.017,0-.017,0-.017,0-.017,0-.017,0-.017,0-.017,0-.017,0-.017,0-.017,0-.017,0-.017a1.9,1.9,0,0,1-.4-.346c.056-.157.122-.369.164-.531a1.139,1.139,0,0,0,.444-.2c.043-.89,1.686-1.914.625-2.549l-.054-.22c.857-.878.737-2.423,2.045-2.992a.677.677,0,0,1,.229.349l.186.106.492-.165a1.421,1.421,0,0,1,.315.355,2.161,2.161,0,0,0,.808-.109l-.1-.241.1-.2a2.078,2.078,0,0,1,.532-.09l.145.2a2.707,2.707,0,0,0,1.068-1.406c.8.134.719-.3.662-.616,1.307-.678,1.225-.954,1.076-1.454-4.334-.616-4.334-.616-7.811,3.87-.4-.082-.806.067-1.2-.044l0-.05a5.794,5.794,0,0,0,1.141-.377c.014-.281.051-.388.4-.479a1.448,1.448,0,0,0-.051-.169c-.074-.175-.074-.175-.786-.466a6.085,6.085,0,0,1,1-2.065l.25.027c.31-.435.31-.435.415-.6a2.332,2.332,0,0,1,.261.666h.2c.432-1.707.467-1.846.258-2.318a1.041,1.041,0,0,0-.43.238c-.039-.061-.949-1.5.02-1.476l.158-.171a8.19,8.19,0,0,1-.178-2.716c1.482-1.075,2.665-2.479,4.032-3.68a.552.552,0,0,1-.026.1.649.649,0,0,0,.046.676l.49.054c-.384,1.189-.263,1.31.529,2.1a1.2,1.2,0,0,0-.89.431l.093.259A20.568,20.568,0,0,0-161,137.5l.034-.218a1.658,1.658,0,0,1-.213-.4l.1-.193c.732.12,1.481.064,2.211.21.384-.551.377-.57.266-.9-1.015-.226-1.015-.226-1.37-.157-2.637.52-2.831.138-3-.2h.349c2.81.3,7.288-2.667,6.839-4.067l-.479.183a2.108,2.108,0,0,1,.751-1.212c1.082-.626,1.789-.775,2.1-.44a3.83,3.83,0,0,0,2.687.767c-.009-.818-.009-.818-.11-1.09a16.469,16.469,0,0,0-1.9-.216l-.055-.056c.112-.6.118-.655.008-.972,0,0-.009,0-.178.011-.311.322-.311.322-.555.338a2.533,2.533,0,0,1-.34-.65c.608-.513.608-.513.772-.756a3.535,3.535,0,0,1-.686-.355c-.233.048-.233.048-.706.427h-.222s0,0-.049-.037a1.8,1.8,0,0,1-.175-.632c1.1-.313,1.1-.313,1.368-.5a1.785,1.785,0,0,1,.093-.425l.242-.021a10.877,10.877,0,0,1,.942,2.192h.168l.054-.036a13,13,0,0,1,.547-1.2l.022,0,.022,0,.022,0,.022,0,.022,0,.022,0,.023,0,.022,0,.022,0,.022,0,.022,0,.022,0,.022,0,.022,0,.022,0,.022,0,.022,0,.022,0,.022,0,.022,0,.022,0,.022,0,.022,0,.022,0,.022,0,.022,0,.022,0,.022,0,.022,0,.022,0,.022,0,.022,0a6.6,6.6,0,0,0,2.093,1.2l.189-.142c.152.469.152.469.307.606a2.4,2.4,0,0,0,.416-.22l.016,0,.016,0,.016,0,.016,0,.016,0,.016,0,.016,0,.016,0,.016,0,.016,0,.016,0,.016,0,.016,0,.016,0,.016,0,.016,0,.016,0,.016,0,.016,0,.015,0,.016,0,.016,0,.016,0,.016,0,.016,0,.015,0,.016,0,.016,0,.015,0,.016,0,.015,0,.015,0,.062-.248c2.431-.685,2.431-.685,2.36-1.773l.008,0,.008,0,.008,0,.008,0,.008,0,.008,0,.008,0,.008,0,.008,0,.008,0,.008,0,.008,0,.008,0,.008,0,.008,0,.008,0,.008,0,.008,0,.008,0,.008,0,.008,0,.008,0,.008,0,.008,0,.008,0,.008,0,.008,0,.008,0,.008,0,.008,0,.008,0,.008,0v-.13s0,0,.069-.169c-.04-.146-.1-.338-.145-.482l.238.007c-.3-.469-.3-.469-.112-.845,1.378.524,2.157,1.888,3.482,2.486a3.133,3.133,0,0,1,.755-.321c-.4-.968-1.534-1.307-1.945-2.265l.039.025a15.8,15.8,0,0,1,2.776,2.644l.023.019.023.019.023.019.023.019.023.019.023.019.023.019.023.019.023.019.023.019.023.019.022.019.023.019.023.019.023.019.023.019.022.019.022.019.022.019.023.02.022.019.023.019.022.019.022.019.022.02.023.019.022.019.022.02.022.019.022.02.022.019a.882.882,0,0,1,.091.124l.138.211.221.023a35.355,35.355,0,0,0-2.379-2.818l-.005,0-.006,0-.006,0-.005,0-.006,0-.005,0-.006,0-.006,0-.005,0-.006,0-.005,0-.006,0-.005,0-.006,0-.005,0-.006,0-.005,0-.005,0-.006,0-.005,0-.006,0-.005,0-.005,0-.006,0-.005,0-.006,0-.005,0-.005,0-.006,0-.005,0-.005,0-.035-.016a15.047,15.047,0,0,1-2.6-1.771s0,0,.118-.028l.151-.175c-.682-.537-1.482-.9-2.146-1.463l-.014-.007-.014-.007-.014-.007-.014-.007-.014-.007-.014-.007-.014-.007-.014-.007-.014-.007-.014-.007-.014-.007-.014-.007-.014-.007-.014-.007-.014-.007-.014-.007-.014-.007-.014-.007-.014-.007-.014-.007-.014-.007-.014-.007-.014-.007-.014-.007-.014-.007-.014-.007-.014-.007-.014-.007-.014-.007-.014-.007-.014-.007s-.009,0-.016-.1l.009,0,.009,0,.009,0,.009,0,.009,0,.009,0,.009,0,.009,0,.009,0,.009,0,.009,0,.009,0,.009,0,.009,0,.009,0,.009,0,.008,0,.009,0,.009,0,.009,0,.009,0,.009,0,.009,0,.009,0,.009,0,.009,0,.009,0,.009,0,.009,0,.009,0,.009,0s.006,0-.071-.128l-.123-.186a10.342,10.342,0,0,1,3.414,1.771l.011.008a23.8,23.8,0,0,0-4.443-2.727A23.2,23.2,0,0,0-151.694,119a24.2,24.2,0,0,0-5.822-.668,23.427,23.427,0,0,0-5.356.609,23.386,23.386,0,0,0-5.017,1.722,24.231,24.231,0,0,0-4.547,2.75,25.641,25.641,0,0,0-3.96,3.721,27.979,27.979,0,0,0-3.27,4.74c.057-.086.126-.206.177-.3-.156.3-.326.586-.484.881l-.1.187c-.27.544-.589,1.29-.839,1.845.2-.47.527-1.158.673-1.456v.076c-.567,1.156-.578,1.38-.59,1.618a5.744,5.744,0,0,1,1.487-2.026l.161.151c-.849,3.11-.8,3.266-.612,3.847.8-.747.8-.747,1.066-.72l.065.226c-.355.165-.508.339-.785.887l0,.035a1.444,1.444,0,0,1,.417.088c-.308.692-.308.692-.277.855l.2.079-.061.26-.211-.025v.253s0,.006.04.187a3.119,3.119,0,0,1-.294.332l-.1-.188c-.346.772-.346.772-.436.841,0,0,0,.006.062.208.145.439-.13.915.114,1.346l.021-.01.076-.519h0l0,0h.005l0,0h.008l0,0h.006l0,0h0l0,0h.006l0,0h.006l0,0h.006l0,0h.008l0,0h.006l0,0h.006v.037c-.11.471-.11.471.008.71h.09a1.63,1.63,0,0,1,.213-.438c-.364,1.281-.364,1.281-.146,1.721.078-.117.176-.276.245-.4.707.965.1,2.138.5,3.152a1.816,1.816,0,0,1,1.248.637s-.245,1.98-.287,2.532c.264.174.393.5.71.616a1.335,1.335,0,0,1,.042.442l-.181.129a1.252,1.252,0,0,0-.364-.31l-.158.158c.52,4.2,2.969,5.379,2.993,5.384a.68.68,0,0,1-.369.192c.008.155.02.36.031.515h.064l.031.014.206.092,0,.016,0,.015,0,.015,0,.016,0,.015,0,.015,0,.016,0,.015,0,.015,0,.015,0,.015,0,.016,0,.015,0,.015,0,.015,0,.015,0,.015,0,.015,0,.015,0,.015,0,.015,0,.015,0,.015,0,.015,0,.015,0,.015,0,.015,0,.015,0,.015,0,.015,0,.015,0,.015c.335.127.493.322,1.018.969" transform="translate(183.121 -117.713)" fill="#c7c9cb"/>
        <path id="Path_33" data-name="Path 33" d="M-135.976,158.028q.344-.586.653-1.189a25.564,25.564,0,0,0,1.178-2.43,3.554,3.554,0,0,0,.379-.966c.021-.056.043-.11.063-.166a24.488,24.488,0,0,0,1.142-4.454q.022-.117.037-.234a25.553,25.553,0,0,0,.279-3.775q0-.651-.034-1.3v-.023a2.806,2.806,0,0,0-.023-.352,25.844,25.844,0,0,0-.805-4.939,2.677,2.677,0,0,0-.087-.315,24.981,24.981,0,0,0-1.633-4.307c-.031-.064-.064-.126-.1-.189a2.942,2.942,0,0,0-.333-.639,26.312,26.312,0,0,0-2.32-3.58,3.264,3.264,0,0,0-.814-1.02l-.006.008q-.357-.42-.73-.825a26.623,26.623,0,0,0-1.925-1.917,3.8,3.8,0,0,0-.954-.859l-.018.026a27.426,27.426,0,0,0-3.139-2.214,5.291,5.291,0,0,0-1.12-.663l-.008.016c-.348-.189-.7-.369-1.056-.544l-.295-.142-.037-.017.009-.017h0a26.191,26.191,0,0,0-3.792-1.433q-.775-.231-1.559-.414a25.376,25.376,0,0,0-4.505-.673,8.832,8.832,0,0,0-1.409-.188.9.9,0,0,0-.33.047.264.264,0,0,0-.086.053.254.254,0,0,0-.085-.053.9.9,0,0,0-.33-.047,33.2,33.2,0,0,0-3.476.577,34.7,34.7,0,0,0-7.79,2.132l.023.05-.025-.049a24.31,24.31,0,0,0-4.111,2.469c-.057.032-.118.064-.175.1l.014.022a25.115,25.115,0,0,0-3.52,3.229c-.051.036-.1.068-.153.1l.026.036a24.984,24.984,0,0,0-2.871,3.955l-.048.038.015.017a23.632,23.632,0,0,0-2.047,4.571,24.745,24.745,0,0,0-1.038,4.9l0,0v0a26.531,26.531,0,0,0-.158,2.885q0,1.111.092,2.224l0,0,.006.005a28.63,28.63,0,0,0,2.728,10.048,28.444,28.444,0,0,0,14.093,13.8,22.174,22.174,0,0,0,4.287,1.322c.017.006.031.011.047.016v-.006c.563.11,1.124.2,1.684.26q.482.056.967.085l.1,0,.043,0a5.056,5.056,0,0,0,.6.033h.015l.107,0h.008l.2,0h.034c.059,0,.119,0,.179,0l.066,0c.051,0,.1.008.15.008h.036l.015,0h0l.036,0h.02l.019,0,.011,0,.008,0,.066-.01.073.008.01,0h.015c.066.005.116.009.148.009l.034,0c0-.006.026,0,.045-.027h.013v.008h0a1.978,1.978,0,0,0,.23.012c.05,0,.1,0,.149-.006l.145,0c.1,0,.2,0,.314-.008h0a33.052,33.052,0,0,0,6.58-1.079,17.387,17.387,0,0,0,3.916-1.422,26.18,26.18,0,0,0,3.016-1.61,8.987,8.987,0,0,0,1.459-.972,27.033,27.033,0,0,0,2.3-1.845,6.046,6.046,0,0,0,2.07-2.071,25.7,25.7,0,0,0,2.347-3.052A4.136,4.136,0,0,0-135.976,158.028Zm-5.146,6.073c-.063.042-.127.083-.192.125a28.1,28.1,0,0,0,2.249-2.192.227.227,0,0,0-.012.022A26.39,26.39,0,0,1-141.122,164.1Zm-2.31,1.852c-.2.142-.4.282-.6.417.293-.211.583-.429.867-.653C-143.251,165.8-143.339,165.877-143.432,165.954Zm-8.337,3.976-.387.1A17.742,17.742,0,0,0-149.85,169q.746-.227,1.493-.483a21,21,0,0,1-3.41,1.408Zm-31.2-25.844a26.993,26.993,0,0,1,2.614-1.476,34.711,34.711,0,0,0,.595,5.1,24.527,24.527,0,0,0-2.5,1.423A30.565,30.565,0,0,1-182.972,144.086Zm.6,5.123a10.071,10.071,0,0,0-1.647,1.352,28.441,28.441,0,0,1-.868-4.965,11.622,11.622,0,0,1,1.791-1.43A30.981,30.981,0,0,0-182.37,149.21Zm-.652-6.788a27.933,27.933,0,0,1,.214-3.458,28.746,28.746,0,0,1,2.658-1.467,30.1,30.1,0,0,0-.236,3.792c0,.4.01.791.024,1.187a27.343,27.343,0,0,0-2.618,1.469Q-183.021,143.182-183.021,142.421Zm1.29-11.431a16.509,16.509,0,0,1,1.883-1.275,22.727,22.727,0,0,0-1.969,4.295,14.9,14.9,0,0,0-1.9,1.347A23.436,23.436,0,0,1-181.731,130.99Zm34.363-9.687c.074.034.146.072.219.107q1,.5,1.955,1.089a1.637,1.637,0,0,1,.36.418,26.515,26.515,0,0,0-3.944-2.231q.246.091.488.188.355.157.708.324Zm14.113,18.087c-.02.071-.043.141-.07.211a26.4,26.4,0,0,0-1.555-4.726,1.954,1.954,0,0,0,.11-.541A24.823,24.823,0,0,1-133.255,139.39Zm.027-1.162a2.568,2.568,0,0,1,.06.535,2.533,2.533,0,0,1-.023.305q-.178-.89-.416-1.768a2.959,2.959,0,0,1,.292.612C-133.285,138.018-133.256,138.123-133.228,138.228Zm.455,3.859a2.891,2.891,0,0,1,.346,1.053c.008.125.016.25.022.376a2.787,2.787,0,0,1-.262,1.156q-.008-.294-.025-.586C-132.692,143.419-132.721,142.753-132.773,142.088Zm.124,6.484q-.018.117-.038.235a3.13,3.13,0,0,1-.285.811q.171-1.066.249-2.146a2.848,2.848,0,0,1,.1.739A3.111,3.111,0,0,1-132.648,148.571Zm-1.061,3.827a2.681,2.681,0,0,0-.157-.633c.117-.371.223-.745.322-1.121.124-.139.237-.281.341-.424Q-133.407,151.322-133.709,152.4Zm-.178,1.011h0v0Zm-4.137,6.8a23.217,23.217,0,0,0,1.768-3.086q.164-.283.324-.569a2.362,2.362,0,0,1,.047.442,2.5,2.5,0,0,1-.134.8q-.494.807-1.047,1.58A8.959,8.959,0,0,1-138.024,160.209Zm-42.236-18.921a30.106,30.106,0,0,1,.244-3.859c1.043-.509,2.153-1,3.315-1.474a33.452,33.452,0,0,0-.215,3.836q0,.558.018,1.119c-1.179.489-2.3.988-3.341,1.5C-180.251,142.038-180.26,141.664-180.26,141.289Zm17.137-20.17a12.227,12.227,0,0,0-.7,2.529c-1.044.307-2.116.626-3.209.961a12.885,12.885,0,0,1,1.336-2.785Q-164.377,121.454-163.123,121.118Zm4.367-1.184c.221.585.465,1.255.725,2.007-.825.251-1.683.506-2.57.766-.02-.385-.031-.755-.031-1.106,0-.413.015-.8.047-1.163C-159.931,120.262-159.32,120.1-158.756,119.934Zm23.742,14.945a3.742,3.742,0,0,1-.832,1.224,29.841,29.841,0,0,0-2.238-4.577,2.988,2.988,0,0,0,.637-1.025A27.632,27.632,0,0,1-135.014,134.88Zm1.606,4.921a4.853,4.853,0,0,1-1.007,1.322,28.705,28.705,0,0,0-1.383-4.893,4.066,4.066,0,0,0,.852-1.19A26.405,26.405,0,0,1-133.407,139.8Zm-.586,11.948a26.268,26.268,0,0,1-1.714,4.119,24.358,24.358,0,0,0,1.293-4.377,8.94,8.94,0,0,0,.691-.648C-133.807,151.146-133.9,151.447-133.993,151.748Zm-5.1,9.2q-.566.355-1.209.7a21.908,21.908,0,0,0,2.211-3.926,18.023,18.023,0,0,0,2.017-1.3c-.093.217-.192.431-.293.644A28.26,28.26,0,0,1-139.1,160.948Zm-3.589,4.22c-.109.092-.218.183-.329.272a27.4,27.4,0,0,1-3.612,2.288c.04-.042.074-.087.111-.13a22.341,22.341,0,0,0,2.39-1.775c.034-.024.068-.051.1-.075l.287-.123q.566-.248,1.085-.508Zm-3.568,2.063c.2-.121.406-.246.605-.373-.217.156-.438.307-.66.456C-146.291,167.286-146.271,167.259-146.254,167.231Zm-9.92,3.18c-.463.092-.912.177-1.327.252a3.343,3.343,0,0,0,1-1.132c.677-.171,1.394-.353,2.144-.549A6.135,6.135,0,0,1-156.174,170.411Zm-3.253.582a1.815,1.815,0,0,1-.485-.588c.388-.107.831-.221,1.323-.346a1.222,1.222,0,0,1-.366.645,2.719,2.719,0,0,1-.23.2c-.029.029-.058.045-.08.065Zm-4.794-.879a1.909,1.909,0,0,1,.457-.3,10.058,10.058,0,0,0,1.3.72c-.149-.027-.3-.056-.458-.085q-.457-.088-.932-.186C-163.973,170.216-164.1,170.166-164.221,170.115Zm-12.57-30.324a33.163,33.163,0,0,1,.223-3.891c1.218-.5,2.5-.98,3.818-1.456q-.132,1.578-.132,3.206c0,.56.011,1.125.034,1.693-1.368.5-2.682,1-3.927,1.514C-176.784,140.5-176.791,140.145-176.791,139.791Zm27.58-18.938a23.443,23.443,0,0,0-2.242-1.009q.532.141,1.061.3.325.124.648.256A2.392,2.392,0,0,1-149.211,120.854Zm7.94,6.484a5.262,5.262,0,0,1-1.08.963,29.752,29.752,0,0,0-3.123-3.628,2.8,2.8,0,0,0,.687-.757A28.528,28.528,0,0,1-141.271,127.337Zm-3.456-3.532a1.17,1.17,0,0,0,.13-.5.464.464,0,0,0-.007-.076,28.186,28.186,0,0,1,3.769,3.175,1.658,1.658,0,0,1-.358.836A28.817,28.817,0,0,0-144.727,123.806Zm10.68,22.569a14.465,14.465,0,0,1-2,1.448c0-.169.006-.337.006-.505a30.757,30.757,0,0,0-.344-4.548,13.2,13.2,0,0,0,1.886-1.4,28.1,28.1,0,0,1,.451,4.988Zm-3.969,11.161a24.467,24.467,0,0,0,1.4-4.519,16.608,16.608,0,0,0,2.047-1.4,24.01,24.01,0,0,1-1.4,4.574A16.878,16.878,0,0,1-138.017,157.536Zm-18.4,11.849a8.5,8.5,0,0,0,.706-2.1c.933-.265,1.9-.543,2.894-.835a9.845,9.845,0,0,1-1.392,2.366C-154.984,169.022-155.722,169.209-156.421,169.385Zm-2.022.51c.024-.256.038-.527.038-.82,0-.316-.015-.655-.039-1.012.828-.237,1.7-.482,2.591-.736a8.142,8.142,0,0,1-.73,2.1Q-157.568,169.674-158.442,169.9Zm-14.315-32.245q0-1.652.138-3.254,2.063-.741,4.146-1.429c-.011.4-.017.8-.017,1.208,0,1.173.044,2.376.121,3.6-1.463.492-2.918,1-4.355,1.521Q-172.756,138.469-172.757,137.65Zm.867-7.837c1.268-.444,2.535-.867,3.79-1.273a35.874,35.874,0,0,0-.369,4.3q-2.073.689-4.136,1.425A30.516,30.516,0,0,1-171.891,129.813Zm7.732-2.512c-.014.443-.022.892-.022,1.35q0,1.348.076,2.775-2.109.668-4.238,1.369a35.3,35.3,0,0,1,.376-4.3C-166.685,128.084-165.412,127.686-164.159,127.3Zm3.76-1.15c.154,1.248.344,2.561.561,3.935q-2.048.643-4.144,1.3c-.048-.938-.074-1.851-.074-2.737q0-.706.023-1.389C-162.8,126.883-161.586,126.514-160.4,126.151Zm7.533-6.513c-.268-.11-.536-.214-.806-.31h0l.063.021,0-.008q.32.066.641.138A.275.275,0,0,1-152.866,119.638Zm7.2,5.025a10.018,10.018,0,0,1-1.4.846,27.508,27.508,0,0,0-2.917-3.065,4.343,4.343,0,0,0,.874-.617A25.863,25.863,0,0,1-145.663,124.662Zm3.208,3.709a15.844,15.844,0,0,1-1.859,1.065,32.644,32.644,0,0,0-2.668-3.831,9.973,9.973,0,0,0,1.408-.856A29.869,29.869,0,0,1-142.454,128.371Zm2.689,4.368a21.026,21.026,0,0,1-2.24,1.249,37.37,37.37,0,0,0-2.245-4.448,16.056,16.056,0,0,0,1.869-1.07A32.6,32.6,0,0,1-139.765,132.739Zm2.023,4.843a26.425,26.425,0,0,1-2.53,1.39,40.3,40.3,0,0,0-1.685-4.871,21.566,21.566,0,0,0,2.25-1.252A33.907,33.907,0,0,1-137.742,137.582Zm1.222,5.126a29.368,29.368,0,0,1-2.708,1.467,37.4,37.4,0,0,0-1.011-5.084A26.848,26.848,0,0,0-137.7,137.7,31.932,31.932,0,0,1-136.521,142.708Zm-4.363,16.281a24.988,24.988,0,0,0,1.346-4.45c.99-.462,1.918-.939,2.775-1.438a24.375,24.375,0,0,1-1.431,4.535C-139.041,158.111-139.942,158.56-140.883,158.989Zm-3.343,1.386a25.639,25.639,0,0,0,1.18-4.345c1.182-.465,2.309-.937,3.367-1.426a24.686,24.686,0,0,1-1.37,4.46C-142.064,159.523-143.126,159.958-144.226,160.375Zm-3.642,1.294a27.476,27.476,0,0,0,.893-4.185q1.94-.679,3.792-1.4a25.429,25.429,0,0,1-1.2,4.35C-145.51,160.861-146.676,161.27-147.869,161.669Zm-3.766,1.215a30.56,30.56,0,0,0,.486-4c1.367-.444,2.717-.893,4.04-1.355a27.061,27.061,0,0,1-.906,4.187C-149.2,162.114-150.409,162.5-151.635,162.885Zm-16.729-28.71c0-.421.006-.837.017-1.25q2.129-.706,4.249-1.372c.08,1.507.215,3.076.392,4.7q-2.273.73-4.538,1.486C-168.322,136.523-168.364,135.334-168.364,134.174Zm14.287-10.039c.595,1.087,1.172,2.262,1.728,3.514q-1.6.559-3.4,1.138-.568-1.969-1.127-3.732C-155.877,124.74-154.942,124.434-154.077,124.135Zm-2.285-5.049a.331.331,0,0,0,.125-.187h0a12.89,12.89,0,0,1,2.941,1.265,6.075,6.075,0,0,1-.858.434A11.237,11.237,0,0,0-156.361,119.086Zm.877-.1c.261.045.524.093.788.142a17.018,17.018,0,0,1,1.816.637.819.819,0,0,1-.3.322,13.468,13.468,0,0,0-2.449-1.125Zm2.314,1.247a19.444,19.444,0,0,1,2.982,2.188c-.432.232-.949.462-1.531.7a20.491,20.491,0,0,0-2.329-2.437A6.239,6.239,0,0,0-153.17,120.233Zm14.084,29.217c-1.076.51-2.235,1.007-3.459,1.5q.009-.394.009-.789a40.261,40.261,0,0,0-.241-4.293c1.228-.5,2.382-1,3.448-1.505a34.491,34.491,0,0,1,.258,4.167C-139.071,148.837-139.078,149.144-139.086,149.45Zm-16.248,14.571q.041-.854.041-1.754c0-.664-.017-1.349-.048-2.051,1.339-.418,2.7-.847,4.063-1.289a30.14,30.14,0,0,1-.494,4C-152.979,163.306-154.17,163.669-155.333,164.021Zm-3.451,1.039c-.16-1.127-.355-2.327-.574-3.594q1.914-.6,3.894-1.212c.029.688.045,1.361.045,2.012q0,.922-.042,1.793Q-157.164,164.574-158.784,165.061Zm-.251-30.171c.282,1.636.577,3.3.873,4.989q-2.377.763-4.748,1.524c-.253-1.707-.476-3.4-.659-5.068Q-161.3,135.606-159.035,134.89Zm11.846-4.191c-1.042.418-2.15.831-3.317,1.245q-.8-2.231-1.676-4.224c1-.352,1.945-.7,2.821-1.051A41.327,41.327,0,0,1-147.189,130.7Zm4.516,20.3q-1.925.77-3.981,1.5a48.865,48.865,0,0,0-.277-5.057q2.089-.75,4.032-1.525a39.892,39.892,0,0,1,.238,4.244C-142.66,150.442-142.666,150.722-142.673,151Zm-8.527,5.287q0,1.284-.071,2.508c-1.37.445-2.732.874-4.075,1.293-.063-1.418-.18-2.906-.338-4.457,1.461-.465,2.945-.941,4.442-1.435C-151.215,154.9-151.2,155.6-151.2,156.289Zm.616-24.188q.818,2.308,1.5,4.755-2.033.724-4.239,1.451c-.361-1.661-.75-3.291-1.156-4.883C-153.125,132.976-151.821,132.538-150.584,132.1Zm-1.693,11.6q2.291-.762,4.433-1.525c.332,1.738.6,3.472.778,5.183-1.444.517-2.935,1.028-4.465,1.537C-151.725,147.181-151.979,145.446-152.277,143.7Zm-.02-.123q-.449-2.617-1-5.154c1.471-.488,2.89-.969,4.246-1.452.453,1.657.851,3.355,1.187,5.082Q-150,142.821-152.3,143.579Zm-.121.04q-2.358.786-4.719,1.542c-.287-1.752-.586-3.487-.885-5.2,1.539-.494,3.076-.992,4.6-1.5Q-152.87,141-152.417,143.62Zm.02.123c.3,1.744.551,3.479.746,5.2q-2.346.782-4.669,1.523c-.24-1.7-.51-3.431-.8-5.178Q-154.759,144.525-152.4,143.742Zm.76,5.321c.19,1.69.324,3.363.391,5.007-1.5.495-2.986.971-4.449,1.437-.167-1.612-.373-3.254-.608-4.922Q-153.987,149.84-151.637,149.063Zm.515,4.966c-.067-1.645-.2-3.317-.393-5.007,1.529-.51,3.02-1.02,4.462-1.537a48.549,48.549,0,0,1,.274,5.035v.024C-148.191,153.047-149.643,153.54-151.122,154.03Zm4.178-6.713c-.182-1.712-.447-3.445-.78-5.182q2.057-.738,3.948-1.494a46.209,46.209,0,0,1,.866,5.149C-144.2,146.309-145.551,146.816-146.944,147.316Zm-.8-5.3c-.336-1.727-.734-3.425-1.189-5.082q1.944-.694,3.709-1.4a49.064,49.064,0,0,1,1.423,4.987C-145.06,141.024-146.379,141.52-147.747,142.013Zm-1.222-5.2c-.45-1.627-.95-3.215-1.5-4.753q1.757-.622,3.329-1.249a48.115,48.115,0,0,1,1.869,4.606C-146.439,135.889-147.677,136.351-148.969,136.813Zm-1.656-4.827c-1.233.435-2.534.873-3.889,1.318q-.591-2.308-1.2-4.4c1.2-.39,2.339-.768,3.411-1.143Q-151.422,129.748-150.625,131.986Zm-3.978,1.476c.406,1.591.794,3.223,1.157,4.884-1.523.5-3.06,1-4.6,1.5-.294-1.688-.589-3.352-.873-4.989Q-156.739,134.159-154.6,133.461ZM-158.142,140q.45,2.568.885,5.2-2.412.776-4.794,1.54c-.3-1.747-.586-3.488-.842-5.215Q-160.524,140.761-158.142,140Zm.9,5.321c.287,1.747.556,3.476.8,5.177q-2.359.758-4.665,1.493c-.311-1.679-.622-3.39-.922-5.13C-160.446,146.351-158.844,145.84-157.238,145.323Zm.814,5.3c.233,1.668.44,3.312.605,4.922q-2.221.706-4.365,1.382c-.292-1.567-.6-3.175-.9-4.813Q-158.786,151.377-156.424,150.624Zm.618,5.048c.158,1.553.274,3.041.337,4.458q-1.987.62-3.91,1.216c-.236-1.356-.5-2.79-.781-4.3Q-158.026,156.372-155.806,155.671Zm4.689-1.515c1.476-.489,2.926-.98,4.337-1.482a36.5,36.5,0,0,1-.309,4.721c-1.327.463-2.682.915-4.053,1.36q.068-1.205.069-2.467C-151.074,155.59-151.091,154.878-151.117,154.156Zm4.463-1.527q2.048-.729,3.977-1.5a31.914,31.914,0,0,1-.482,4.809c-1.233.484-2.5.951-3.8,1.4A36.922,36.922,0,0,0-146.654,152.629Zm4.1-1.545c1.223-.491,2.381-.987,3.458-1.5a29.166,29.166,0,0,1-.559,4.868c-1.057.49-2.186.964-3.37,1.431A32.373,32.373,0,0,0-142.549,151.084Zm-.241-5.344a46.559,46.559,0,0,0-.868-5.147c1.185-.48,2.29-.958,3.3-1.445a37.363,37.363,0,0,1,1.008,5.086C-140.41,144.744-141.562,145.243-142.79,145.74Zm-.9-5.269a48.994,48.994,0,0,0-1.425-4.986c1.1-.442,2.118-.882,3.041-1.329a40.211,40.211,0,0,1,1.682,4.871C-141.4,139.514-142.5,139.993-143.686,140.472Zm-1.465-5.1a48.321,48.321,0,0,0-1.87-4.606c.973-.392,1.863-.776,2.66-1.167a37.115,37.115,0,0,1,2.242,4.447C-143.038,134.489-144.054,134.927-145.151,135.37Zm-1.921-4.718a41.687,41.687,0,0,0-2.17-4.032c.8-.323,1.518-.637,2.149-.956a32.526,32.526,0,0,1,2.67,3.828C-145.217,129.88-146.1,130.263-147.073,130.652Zm-2.236-4.137a31.514,31.514,0,0,0-2.328-3.293c.586-.243,1.108-.477,1.546-.714a27.222,27.222,0,0,1,2.917,3.059C-147.8,125.882-148.516,126.195-149.309,126.516Zm-2.449-3.245a31.4,31.4,0,0,1,2.331,3.291c-.87.348-1.808.7-2.8,1.045-.555-1.251-1.131-2.425-1.726-3.514C-153.166,123.816-152.43,123.545-151.758,123.271Zm-2.876,10.071q-2.127.7-4.3,1.389c-.273-1.585-.532-3.107-.762-4.56q1.966-.617,3.869-1.228C-155.429,130.335-155.027,131.8-154.633,133.342Zm-4.424,1.427c-1.5.478-3.012.957-4.526,1.441-.176-1.622-.311-3.191-.391-4.7,1.4-.441,2.786-.875,4.155-1.3C-159.59,131.663-159.331,133.185-159.057,134.769Zm-4.634,1.6q.276,2.505.66,5.068-2.357.761-4.679,1.539c-.234-1.716-.414-3.426-.526-5.12C-166.728,137.355-165.209,136.861-163.691,136.374Zm.678,5.19c.256,1.727.541,3.468.842,5.216q-2.354.76-4.647,1.527c-.338-1.734-.636-3.472-.875-5.2C-166.15,142.583-164.586,142.072-163.014,141.564Zm.864,5.338q.452,2.609.924,5.13c-1.51.485-2.994.967-4.445,1.452q-.608-2.466-1.123-5.054C-165.269,147.917-163.717,147.409-162.15,146.9Zm.946,5.251q.457,2.458.9,4.812c-1.392.443-2.755.88-4.077,1.318q-.66-2.271-1.26-4.68C-164.193,153.119-162.71,152.638-161.2,152.154Zm.923,4.934c.282,1.506.546,2.939.781,4.3-1.239.388-2.431.763-3.566,1.132q-.643-1.931-1.281-4.113C-163.029,157.965-161.67,157.528-160.281,157.088Zm.8,4.417c.218,1.267.414,2.466.572,3.592q-1.546.467-2.927.9c-.395-1.044-.793-2.169-1.194-3.367C-161.9,162.264-160.712,161.891-159.478,161.505Zm.59,3.715c.141,1.022.254,1.942.313,2.755-.793.227-1.53.441-2.208.647-.315-.724-.649-1.562-1.006-2.508C-160.879,165.825-159.909,165.528-158.888,165.22Zm.121-.036c1.071-.324,2.173-.654,3.3-.994a20.156,20.156,0,0,1-.355,3l-2.629.746C-158.512,167.123-158.623,166.2-158.767,165.184Zm3.428-1.033c1.156-.35,2.34-.71,3.54-1.086a17.668,17.668,0,0,1-.959,3.242c-1,.3-1.983.577-2.929.847A20.894,20.894,0,0,0-155.339,164.151Zm18.609-11.21c-.854.5-1.785.983-2.779,1.448a29.563,29.563,0,0,0,.546-4.862c1-.478,1.937-.969,2.788-1.482A27.771,27.771,0,0,1-136.73,152.941Zm.558-5.041c-.848.515-1.782,1.008-2.787,1.488.008-.286.013-.571.013-.858a34.45,34.45,0,0,0-.266-4.226,30.128,30.128,0,0,0,2.711-1.465,30.658,30.658,0,0,1,.334,4.478Q-136.166,147.608-136.171,147.9Zm-13.9-25.542a19.606,19.606,0,0,0-2.988-2.2.887.887,0,0,0,.294-.343,20.817,20.817,0,0,1,3.559,1.944A4.445,4.445,0,0,1-150.073,122.357Zm-7.03-3.625.008-.032c.245.045.491.1.738.168,0,.042-.044.1-.132.154a6.65,6.65,0,0,0-.794-.327C-157.22,118.707-157.16,118.72-157.1,118.733Zm.619.428a10.962,10.962,0,0,1,2.206,1.491c-.431.183-.919.365-1.457.551a12.747,12.747,0,0,0-1.465-1.745A5.662,5.662,0,0,0-156.485,119.161Zm2.312,1.58a20.222,20.222,0,0,1,2.333,2.431c-.666.27-1.393.538-2.177.812a28.913,28.913,0,0,0-1.644-2.678C-155.113,121.117-154.614,120.93-154.173,120.741Zm.036,3.284c-.859.3-1.785.6-2.773.913q-.512-1.615-.962-2.919c.759-.232,1.457-.454,2.088-.67A28.626,28.626,0,0,1-154.137,124.026Zm-2.855,1.068q.556,1.759,1.128,3.732c-1.261.408-2.549.814-3.854,1.223-.216-1.374-.407-2.688-.56-3.935C-159.156,125.77-158.058,125.431-156.992,125.093ZM-168.359,137.9c.113,1.693.292,3.4.528,5.119-1.487.5-2.959,1.014-4.4,1.542a50.343,50.343,0,0,1-.484-5.139C-171.281,138.9-169.825,138.4-168.359,137.9Zm.544,5.242c.241,1.731.537,3.469.877,5.2q-2.186.737-4.29,1.5c-.4-1.718-.735-3.444-.988-5.158C-170.773,144.161-169.3,143.649-167.815,143.146Zm.9,5.325c.341,1.722.719,3.41,1.124,5.053-1.376.461-2.722.925-4.028,1.4-.516-1.6-.98-3.256-1.381-4.954C-169.8,149.459-168.37,148.961-166.914,148.471Zm1.154,5.173q.6,2.405,1.26,4.681-1.863.617-3.613,1.241c-.6-1.451-1.159-2.965-1.666-4.528Q-167.824,154.33-165.76,153.644Zm1.294,4.8q.637,2.179,1.282,4.113-1.613.526-3.067,1.038c-.629-1.212-1.234-2.519-1.815-3.913Q-166.326,159.056-164.466,158.441Zm1.321,4.23c.4,1.2.8,2.322,1.193,3.366-.854.273-1.657.538-2.4.8a35.315,35.315,0,0,1-1.837-3.138C-165.232,163.362-164.214,163.018-163.145,162.671Zm1.236,3.481q.536,1.418,1.007,2.507c-.6.185-1.16.363-1.661.543a19.45,19.45,0,0,1-1.722-2.256C-163.548,166.684-162.753,166.42-161.909,166.151Zm1.056,2.62q.4.9.755,1.56c-.328.092-.615.18-.856.268a7.553,7.553,0,0,1-1.519-1.3C-161.983,169.126-161.442,168.952-160.854,168.771Zm-.114,1.965c.048.028.1.057.146.082l-.245-.039C-161.037,170.764-161,170.749-160.968,170.736Zm1.3.248c-.128-.016-.273-.035-.428-.057-.088-.011-.179-.025-.274-.04a3.334,3.334,0,0,1-.442-.207q.336-.117.779-.24a2.427,2.427,0,0,0,.4.543Zm-.3-.688c-.24-.434-.492-.955-.758-1.561.664-.2,1.388-.412,2.166-.635.023.344.038.671.038.976a8.439,8.439,0,0,1-.042.853C-159.1,170.062-159.566,170.183-159.975,170.3Zm8.315-7.274c1.217-.382,2.422-.766,3.6-1.158a18.281,18.281,0,0,1-1.46,3.45c-1.022.328-2.056.644-3.082.947A18.2,18.2,0,0,0-151.66,163.021Zm3.748-1.208c1.186-.4,2.347-.8,3.47-1.225a18.231,18.231,0,0,1-1.916,3.655c-.972.349-1.975.687-2.988,1.014A18.621,18.621,0,0,0-147.912,161.814Zm3.628-1.286c1.093-.414,2.151-.842,3.162-1.295a20.121,20.121,0,0,1-2.154,3.814c-.914.386-1.882.761-2.882,1.123A18.409,18.409,0,0,0-144.284,160.528Zm3.332-1.373q1.4-.634,2.676-1.334a21.692,21.692,0,0,1-2.273,3.955q-.329.173-.675.342c-.58.285-1.194.564-1.835.838A20.232,20.232,0,0,0-140.951,159.155Zm4.368-6.3a27.741,27.741,0,0,0,.535-4.885,15.293,15.293,0,0,0,2-1.428,26.55,26.55,0,0,1-.48,4.885A16.089,16.089,0,0,1-136.584,152.854Zm.18-10.218a32.169,32.169,0,0,0-1.19-5,10.861,10.861,0,0,0,1.7-1.306,28.453,28.453,0,0,1,1.372,4.9A12.777,12.777,0,0,1-136.4,142.636Zm-1.231-5.123a33.73,33.73,0,0,0-1.968-4.733,8.316,8.316,0,0,0,1.431-1.157,29.927,29.927,0,0,1,2.229,4.577A10.5,10.5,0,0,1-137.635,137.513Zm-2.025-4.843a32.845,32.845,0,0,0-2.62-4.27,5.436,5.436,0,0,0,1.091-.967,30.046,30.046,0,0,1,2.949,4.079A7.985,7.985,0,0,1-139.659,132.67Zm-5.9-8.084a25.977,25.977,0,0,0-3.454-2.85.6.6,0,0,0,.149-.386.748.748,0,0,0-.034-.194l.086.046a25.927,25.927,0,0,1,3.93,2.635A2.661,2.661,0,0,1-145.563,124.586Zm-3.431-3.236a.478.478,0,0,1-.125.315,20.955,20.955,0,0,0-3.618-1.977c0-.006,0-.013,0-.02a.363.363,0,0,0-.041-.148l.131.03a22.852,22.852,0,0,1,3.577,1.518A.591.591,0,0,1-148.994,121.351Zm-9.094-2.736a5.849,5.849,0,0,1,1.462.479,6.02,6.02,0,0,1-.674.269,3.908,3.908,0,0,0-1.18-.733l-.075-.029C-158.4,118.6-158.245,118.607-158.088,118.614Zm.756.888a12.371,12.371,0,0,1,1.473,1.744c-.62.212-1.307.428-2.054.657q-.389-1.124-.724-2C-158.139,119.757-157.7,119.628-157.332,119.5Zm.3,5.473q-1.589.505-3.264,1.015c-.141-1.152-.246-2.206-.3-3.158.9-.264,1.768-.521,2.6-.776Q-157.543,123.358-157.029,124.976Zm-3.386,1.051c-1.18.361-2.388.728-3.614,1.1a26.132,26.132,0,0,1,.321-3.39c1.025-.3,2.025-.591,2.991-.873C-160.663,123.824-160.555,124.878-160.415,126.027Zm-3.741,1.144c-1.247.384-2.514.779-3.79,1.191a21.853,21.853,0,0,1,.867-3.611c1.1-.338,2.181-.66,3.235-.969A26.718,26.718,0,0,0-164.155,127.171Zm-3.924,1.233q-1.879.608-3.777,1.266a19.653,19.653,0,0,1,1.381-3.835q1.645-.547,3.249-1.038A22.215,22.215,0,0,0-168.08,128.4ZM-172,129.72c-1.227.43-2.42.868-3.569,1.321a20.565,20.565,0,0,1,1.721-4.035c1.033-.38,2.106-.75,3.205-1.117A19.818,19.818,0,0,0-172,129.72Zm-.034.141a31.062,31.062,0,0,0-.706,4.447c-1.321.475-2.6.958-3.814,1.452a28.129,28.129,0,0,1,.939-4.569C-174.461,130.735-173.263,130.295-172.031,129.861Zm-.812,9.61a50.956,50.956,0,0,0,.489,5.138c-1.371.5-2.679,1.005-3.91,1.515a40.463,40.463,0,0,1-.506-5.135C-175.525,140.475-174.213,139.972-172.843,139.471Zm.507,5.262c.253,1.715.586,3.44.989,5.158-1.324.482-2.578.962-3.751,1.448a46.259,46.259,0,0,1-1.146-5.092C-175.015,145.738-173.707,145.236-172.336,144.733Zm1.018,5.278q.6,2.546,1.383,4.954c-1.227.444-2.379.882-3.448,1.324a46.655,46.655,0,0,1-1.68-4.832C-173.893,150.973-172.641,150.494-171.318,150.01Zm1.421,5.07q.762,2.345,1.667,4.527c-1.081.389-2.088.77-3.011,1.152a43.545,43.545,0,0,1-2.094-4.358C-172.268,155.961-171.119,155.524-169.9,155.081Zm1.713,4.641c.58,1.392,1.185,2.7,1.814,3.913-.893.32-1.714.629-2.454.939a36.063,36.063,0,0,1-2.358-3.707C-170.262,160.489-169.26,160.109-168.184,159.722Zm1.872,4.023a35.821,35.821,0,0,0,1.835,3.139c-.67.237-1.272.467-1.8.7a25.657,25.657,0,0,1-2.472-2.9C-168.014,164.369-167.2,164.062-166.312,163.745Zm1.9,3.244a19.855,19.855,0,0,0,1.717,2.258c-.415.15-.776.287-1.067.426a15.806,15.806,0,0,1-2.424-2C-165.663,167.447-165.068,167.223-164.407,166.989Zm1.807,2.356a7.858,7.858,0,0,0,1.507,1.311,1.006,1.006,0,0,0-.16.092l-.638-.11a9.277,9.277,0,0,1-1.745-.887C-163.353,169.621-163,169.488-162.6,169.345Zm-.348,1.222c.018.009.037.015.055.023l-.1-.032Zm.746.14.277.05c.082.03.164.06.245.086C-161.855,170.8-162.029,170.759-162.2,170.707Zm3.37.048a1.315,1.315,0,0,0,.374-.731q.843-.214,1.792-.451a3.118,3.118,0,0,1-1.164,1.15c-.469.083-.879.153-1.191.2C-158.963,170.88-158.9,170.822-158.831,170.755Zm6.167-4.347c1.016-.3,2.039-.613,3.054-.936a12.68,12.68,0,0,1-1.984,2.644l0,0c-.811.224-1.62.439-2.416.648A10.239,10.239,0,0,0-152.664,166.408Zm3.23-.993c1-.321,1.993-.654,2.956-1a17.007,17.007,0,0,1-2.653,2.995c-.738.222-1.487.436-2.235.644A13,13,0,0,0-149.434,165.415Zm3.157-1.071c.992-.357,1.949-.724,2.859-1.1a19.934,19.934,0,0,1-3.08,3.323c-.762.265-1.551.52-2.356.765A17.18,17.18,0,0,0-146.277,164.344Zm3.082-1.2c.709-.3,1.389-.606,2.026-.919.154-.076.3-.152.454-.228a22.625,22.625,0,0,1-3.4,3.653c-.655.278-1.348.544-2.07.8A20.112,20.112,0,0,0-143.194,163.147Zm-.4,2.282c.44-.335.87-.686,1.29-1.047a2.226,2.226,0,0,1-.218.535C-142.866,165.091-143.224,165.261-143.6,165.428Zm.594-.626a22.8,22.8,0,0,0,2.541-2.932c.389-.206.759-.412,1.111-.623A28.717,28.717,0,0,1-143,164.8Zm8.625-13.506a26.725,26.725,0,0,0,.457-4.868,6.661,6.661,0,0,0,1.078-1.2,25.4,25.4,0,0,1-.815,5.362A8.259,8.259,0,0,1-134.378,151.3Zm1.544-6.318a5.933,5.933,0,0,1-1.089,1.283,28.166,28.166,0,0,0-.465-4.993,5.263,5.263,0,0,0,1.023-1.275,26.656,26.656,0,0,1,.549,4.108C-132.817,144.393-132.823,144.686-132.834,144.978Zm-5.318-13.562a30.268,30.268,0,0,0-2.958-4.083,1.909,1.909,0,0,0,.386-.817,28.63,28.63,0,0,1,3.185,3.853A2.659,2.659,0,0,1-138.151,131.416Zm-6.486-8.364a1.213,1.213,0,0,0-.158-.3,27.9,27.9,0,0,1,3.688,2.8,1.437,1.437,0,0,1,.273.685A28.327,28.327,0,0,0-144.637,123.052Zm-.11.074a.644.644,0,0,1,.025.177,1.014,1.014,0,0,1-.106.422,26.1,26.1,0,0,0-3.927-2.63c-.073-.04-.147-.078-.223-.117a1.531,1.531,0,0,0-.312-.385l.2.085A26.536,26.536,0,0,1-144.747,123.126Zm-14.317-4.539c.006,0,.007,0,.008,0h.067c-.062.017-.129.035-.205.053-.012-.02-.021-.039-.032-.054Zm.294.065a3.952,3.952,0,0,1,1.337.756c-.357.119-.775.242-1.246.376-.151-.392-.295-.708-.4-.93l-.051-.1C-158.986,118.72-158.864,118.684-158.77,118.652Zm-1.954,4.091-2.96.865a11.937,11.937,0,0,1,.713-2.53c.8-.214,1.553-.414,2.259-.6q-.045.531-.045,1.128C-160.758,121.962-160.745,122.345-160.724,122.743Zm-6.453,1.909c-1.058.326-2.135.668-3.224,1.029a16.046,16.046,0,0,1,1.963-3.059q1.3-.393,2.566-.749A13.184,13.184,0,0,0-167.177,124.652Zm-3.39,1.084c-.015,0-.031.01-.046.016-1.075.358-2.126.719-3.142,1.091a18.8,18.8,0,0,1,2.381-3.289c.888-.3,1.8-.585,2.721-.866A16.449,16.449,0,0,0-170.567,125.736Zm1.905-3.172q-1.293.394-2.544.806a16.116,16.116,0,0,1,2.8-2.394c.692-.2,1.393-.386,2.094-.569a12.59,12.59,0,0,0-2.206,2.111Zm-2.784.886c-.867.291-1.71.593-2.521.911a19.67,19.67,0,0,1,3.156-2.636c.664-.225,1.344-.438,2.033-.639A16.424,16.424,0,0,0-171.446,123.45Zm-.169.186a18.973,18.973,0,0,0-2.321,3.272c-1.009.372-1.979.755-2.9,1.155a21.179,21.179,0,0,1,2.669-3.494C-173.346,124.243-172.492,123.934-171.614,123.636Zm-2.414,3.438a20.785,20.785,0,0,0-1.689,4.027c-1.1.438-2.162.89-3.171,1.364a21.634,21.634,0,0,1,1.943-4.217C-176.022,127.84-175.045,127.452-174.028,127.074Zm-4.914,5.55c1.011-.476,2.075-.932,3.182-1.373a28.081,28.081,0,0,0-.924,4.565c-1.161.474-2.269.962-3.313,1.469A26.239,26.239,0,0,1-178.942,132.624Zm2.048,8.417a40.41,40.41,0,0,0,.51,5.132c-1.159.482-2.249.974-3.262,1.48a34.715,34.715,0,0,1-.588-5.1C-179.191,142.03-178.073,141.53-176.893,141.042Zm.53,5.256a46.168,46.168,0,0,0,1.149,5.089c-1.1.457-2.121.919-3.064,1.4a37.251,37.251,0,0,1-1.344-5.005C-178.612,147.272-177.522,146.782-176.363,146.3Zm1.183,5.208a46.9,46.9,0,0,0,1.682,4.831c-.991.412-1.909.828-2.747,1.256a38.457,38.457,0,0,1-1.993-4.693C-177.3,152.425-176.275,151.962-175.181,151.506Zm1.73,4.944a43.647,43.647,0,0,0,2.095,4.358c-.848.354-1.625.708-2.321,1.073a34.573,34.573,0,0,1-2.512-4.18C-175.356,157.276-174.44,156.861-173.45,156.451Zm2.154,4.467a36.081,36.081,0,0,0,2.355,3.706,18.9,18.9,0,0,0-1.776.848,29.284,29.284,0,0,1-2.887-3.488C-172.913,161.622-172.14,161.269-171.3,160.918Zm3.642,7.385a1.817,1.817,0,0,0-.5.5,23.783,23.783,0,0,1-3.639-2.451,5.951,5.951,0,0,1,1.055-.723A24.222,24.222,0,0,0-167.654,168.3Zm-2.973-2.738a18.541,18.541,0,0,1,1.761-.839,25.879,25.879,0,0,0,2.469,2.907,9,9,0,0,0-1.149.6A24.018,24.018,0,0,1-170.627,165.564Zm4.322,2.161a16.223,16.223,0,0,0,2.421,2.012,1.8,1.8,0,0,0-.459.326,16.877,16.877,0,0,1-3.092-1.756A9.063,9.063,0,0,1-166.305,167.725Zm2.408,2.653c.223.086.446.166.669.237-.32-.084-.634-.183-.944-.295Zm5.519.565a2.185,2.185,0,0,1-.394.067Zm.592-.1c.351-.062.735-.134,1.139-.211a5.335,5.335,0,0,1-1.469.361A2.515,2.515,0,0,0-157.786,170.839Zm1.654-.311.076-.015c.442-.089.9-.183,1.355-.281a9.355,9.355,0,0,1-2.364.671A5.775,5.775,0,0,0-156.131,170.528Zm.363-.2a6.324,6.324,0,0,0,1.628-1.4c.776-.2,1.566-.413,2.358-.631A9.893,9.893,0,0,1-154.2,170C-154.73,170.116-155.254,170.225-155.768,170.328Zm4.235-2.1c.727-.2,1.457-.408,2.176-.622a14.822,14.822,0,0,1-2.854,1.923c-.513.129-1.023.251-1.525.364A10.1,10.1,0,0,0-151.533,168.229Zm2.467-.709c.784-.236,1.557-.48,2.3-.735a18.908,18.908,0,0,1-3.136,2.106c-.608.184-1.214.354-1.816.512A15.167,15.167,0,0,0-149.066,167.52Zm2.635-.849c.66-.231,1.3-.469,1.91-.717q-.883.624-1.81,1.18l.033.052-.055-.029a2.5,2.5,0,0,1-.244.346c-.346.222-.7.434-1.055.636-.552.2-1.107.393-1.664.57A19.041,19.041,0,0,0-146.431,166.671Zm-.508,1.192-.014.012-.017.007C-146.959,167.875-146.948,167.87-146.939,167.863Zm-.471.321.14-.055a5.51,5.51,0,0,1-.482.319q-.883.428-1.8.781a21.667,21.667,0,0,0,1.951-.978Zm.457-.148c.084-.043.167-.087.251-.13l.013-.006-.287.154Zm4.773-3.3-.156.084a2.278,2.278,0,0,0,.186-.572,28.988,28.988,0,0,0,3.141-3.208l.254-.161c0,.053-.005.107-.011.161A24.546,24.546,0,0,1-142.18,164.734Zm3.552-3.942.082-.056c-.028.039-.057.079-.085.117,0-.018,0-.037,0-.055Zm-.006-.144c0-.02,0-.04,0-.06h0q.825-1.026,1.551-2.123-.572,1.015-1.243,1.972Q-138.479,160.543-138.635,160.647Zm2.8-4.265c.044-.081.085-.162.129-.242a8.19,8.19,0,0,0,1.046-1.008q-.35.837-.768,1.647-.18.325-.368.644a2.6,2.6,0,0,0,.038-.426A2.514,2.514,0,0,0-135.838,156.382Zm1.346-1.665a7.023,7.023,0,0,1-1.063,1.13,26.4,26.4,0,0,0,1.623-3.885,2.643,2.643,0,0,1,.121.783Q-134.107,153.747-134.491,154.717Zm1.341-4.789a5.117,5.117,0,0,1-.323.441,25.254,25.254,0,0,0,.61-3.3c.013.029.024.059.037.089A25.825,25.825,0,0,1-133.151,149.928Zm.323-3.076-.014.006c.02-.189.037-.379.054-.569-.007.2-.014.4-.025.595C-132.817,146.875-132.822,146.863-132.828,146.853Zm-.448-7.037.007-.013c.024-.051.042-.1.062-.156.122.693.215,1.392.281,2.093Q-133.066,140.772-133.276,139.816Zm-1.614-5.606a1.882,1.882,0,0,1-.066.494,27.814,27.814,0,0,0-2.446-4.361,1.511,1.511,0,0,0,.039-.338,1.683,1.683,0,0,0-.044-.36,24.252,24.252,0,0,1,1.726,2.763q.422.8.78,1.623C-134.9,134.092-134.89,134.151-134.89,134.211Zm-2.745-4.874a1.73,1.73,0,0,1,.146.67,1.37,1.37,0,0,1-.015.195,28.694,28.694,0,0,0-3.2-3.844c0-.013,0-.028,0-.04a1.312,1.312,0,0,0-.113-.507q.81.748,1.558,1.557Q-138.4,128.313-137.635,129.337ZM-158.8,119.82c-.546.155-1.139.318-1.77.489a3.5,3.5,0,0,1,.373-1.317q.522-.111.938-.207A9.613,9.613,0,0,1-158.8,119.82Zm-1.9.523-2.207.591a4.936,4.936,0,0,1,1.111-1.6c.525-.116,1.006-.218,1.436-.31A3.948,3.948,0,0,0-160.7,120.343Zm-2.364.632c-.818.221-1.66.45-2.521.691a7.882,7.882,0,0,1,1.78-1.874c.618-.144,1.212-.279,1.778-.4A5.291,5.291,0,0,0-163.065,120.975Zm-2.707.744c-.826.232-1.671.477-2.525.735a12.2,12.2,0,0,1,2.32-2.131c.648-.166,1.278-.32,1.883-.463A8.2,8.2,0,0,0-165.772,121.719Zm.1-1.6a9.294,9.294,0,0,1,2.455-1.133c.323-.057.641-.116.947-.175a6.456,6.456,0,0,0-1.587.868C-164.443,119.816-165.049,119.962-165.673,120.119Zm-.357.091-.145.037q-.944.244-1.878.5a13.49,13.49,0,0,1,2.953-1.4l0-.008q.545-.112,1.084-.211A9.826,9.826,0,0,0-166.03,120.21Zm-2.425.654c-.658.188-1.308.385-1.947.594a17.7,17.7,0,0,1,3.279-1.634l-.007-.014c.405-.105.814-.2,1.22-.295A14.064,14.064,0,0,0-168.455,120.864Zm-2.413.75c-.583.2-1.155.409-1.711.633a21.338,21.338,0,0,1,3.444-1.834l0-.008q.553-.185,1.119-.348A18.188,18.188,0,0,0-170.868,121.615Zm-.384.264a19.94,19.94,0,0,0-2.986,2.589c-.764.306-1.5.628-2.194.971a22.714,22.714,0,0,1,3.342-2.844C-172.5,122.339-171.883,122.1-171.252,121.878Zm-3.19,2.8a21.294,21.294,0,0,0-2.591,3.47c-.87.385-1.693.788-2.459,1.215a23.236,23.236,0,0,1,2.817-3.674C-175.97,125.336-175.223,125-174.442,124.682Zm-2.7,3.656a21.746,21.746,0,0,0-1.9,4.2c-.939.444-1.811.9-2.6,1.37a22.678,22.678,0,0,1,2.026-4.325C-178.857,129.145-178.026,128.732-177.146,128.338Zm-1.95,4.361a26.44,26.44,0,0,0-1.036,4.651,29.918,29.918,0,0,0-2.656,1.454,25.364,25.364,0,0,1,1.076-4.714A29.431,29.431,0,0,1-179.1,132.7Zm-.642,15.138a37.141,37.141,0,0,0,1.349,5,20.812,20.812,0,0,0-2.278,1.317,31.546,31.546,0,0,1-1.56-4.895A23.827,23.827,0,0,1-179.739,147.838Zm-.987,6.51a32.82,32.82,0,0,0,2.312,4.534,5.7,5.7,0,0,0-1.147,1.065,29.4,29.4,0,0,1-2.59-4.355A7.635,7.635,0,0,1-180.725,154.347Zm.1-.073a20.335,20.335,0,0,1,2.271-1.317,38.373,38.373,0,0,0,1.993,4.693,16.544,16.544,0,0,0-1.957,1.159A32.782,32.782,0,0,1-180.621,154.274Zm4.321,3.484a34.753,34.753,0,0,0,2.511,4.183,11.345,11.345,0,0,0-1.546.958,31.266,31.266,0,0,1-2.913-3.986A16.219,16.219,0,0,1-176.3,157.759Zm2.583,4.284a29.6,29.6,0,0,0,2.888,3.493,6.19,6.19,0,0,0-1.065.735,27.968,27.968,0,0,1-3.359-3.276A11.155,11.155,0,0,1-173.716,162.042Zm1.733,4.312a1.557,1.557,0,0,0-.412.616,27.7,27.7,0,0,1-3.742-3.052,3.27,3.27,0,0,1,.789-.849A27.875,27.875,0,0,0-171.984,166.354Zm.1.079a23.974,23.974,0,0,0,3.671,2.474.638.638,0,0,0-.065.26.453.453,0,0,0,.009.072,24.942,24.942,0,0,1-4.015-2.2A1.373,1.373,0,0,1-171.886,166.434Zm4.337,1.945a17.179,17.179,0,0,0,3.026,1.742c-.538-.117-1.091-.243-1.654-.38a20.253,20.253,0,0,1-1.869-.882A1.729,1.729,0,0,1-167.549,168.379Zm2.655,1.786q.234.1.475.2-.448-.132-.9-.29Zm-.683-.059c-.238-.082-.473-.172-.708-.265l.07.017C-166,169.944-165.79,170.028-165.577,170.106Zm8.508.8v.006l-.029,0Zm2.915-.791q.7-.153,1.416-.326a12.742,12.742,0,0,1-2.738.9l0,.013-.325.049A9.751,9.751,0,0,0-154.154,170.114Zm1.989-.47q.829-.208,1.671-.449a17.13,17.13,0,0,1-3.169,1.174l0,.006c-.18.038-.36.073-.537.108A13.322,13.322,0,0,0-152.165,169.644Zm11.31-5.993a24.613,24.613,0,0,0,2.053-2.361,2.753,2.753,0,0,1-.107.386Q-139.831,162.709-140.855,163.651Zm2.208-2.565q.21-.279.409-.564c.276-.2.535-.4.771-.6-.4.527-.812,1.039-1.246,1.536A2.644,2.644,0,0,0-138.647,161.086Zm4.958-8.232c0-.03,0-.062,0-.092a24.824,24.824,0,0,0,.654-2.789c.007-.012.015-.024.023-.036a3.678,3.678,0,0,0,.183-.332A24.432,24.432,0,0,1-133.688,152.854Zm1.318-8.04a25.612,25.612,0,0,1-.169,2.916,2.9,2.9,0,0,0-.162-.594q.048-.793.05-1.591c0-.206,0-.412-.007-.619.008-.015.019-.03.026-.045a2.837,2.837,0,0,0,.254-.639C-132.375,144.434-132.37,144.624-132.37,144.814Zm-.387-2.943-.031.018a25.041,25.041,0,0,0-.339-2.494,2.344,2.344,0,0,0,.075-.46,25.624,25.624,0,0,1,.566,3.47A3.051,3.051,0,0,0-132.757,141.871Zm-.769-4.676a2.648,2.648,0,0,0-.156-.222l-.017.012A24.407,24.407,0,0,0-134.776,134c0-.011,0-.022,0-.034A24.734,24.734,0,0,1-133.526,137.2Zm-25.412-18.785c.1,0,.223.009.357.023h-.011c-.028,0-.059,0-.093,0h-.02l-.113,0c-.078,0-.158,0-.237.008l-.013,0h0l0,.006h-.02v-.016a.068.068,0,0,0-.017,0,.064.064,0,0,0-.035.02l-.047,0a.06.06,0,0,0-.042.017h-.02a.2.2,0,0,1,.035-.02A.8.8,0,0,1-158.938,118.41Zm-.551.037c.057.027.069.045.072.085h.053a.069.069,0,0,0,0,.016l-.027.025a.522.522,0,0,1,.064.1c-.236.054-.5.11-.783.173a.6.6,0,0,1,.479-.3h.006l.012-.121h-.018a.825.825,0,0,0-.657.462l-1.318.285a2.678,2.678,0,0,1,1.228-.58l-.02-.12a2.9,2.9,0,0,0-1.462.756l-.039.009q-.787.173-1.645.37a6.02,6.02,0,0,1,1.938-.871l-.013-.049a12.18,12.18,0,0,1,1.847-.273A.8.8,0,0,1-159.489,118.448Zm-11.5,2.661c.166-.071.334-.142.5-.21a21.872,21.872,0,0,0-2.672,1.589c-.4.17-.785.349-1.161.536A24.155,24.155,0,0,1-170.984,121.109Zm-4.093,2.459q.685-.384,1.427-.725a22.844,22.844,0,0,0-3.1,2.753c-.58.3-1.132.607-1.65.937A25.111,25.111,0,0,1-175.077,123.568Zm-3.668,3.339a18.293,18.293,0,0,1,1.74-1.04,23.3,23.3,0,0,0-2.71,3.629,17.4,17.4,0,0,0-1.847,1.211A24.854,24.854,0,0,1-178.745,126.906Zm-5.046,8.681a14.066,14.066,0,0,1,1.915-1.4,25.391,25.391,0,0,0-1.048,4.7,13.7,13.7,0,0,0-1.882,1.415A24.485,24.485,0,0,1-183.791,135.587Zm-1.189,7.739a26.638,26.638,0,0,1,.153-2.831,13.17,13.17,0,0,1,1.882-1.444,28.065,28.065,0,0,0-.2,3.37q0,.8.046,1.6a11.9,11.9,0,0,0-1.794,1.41C-184.949,144.731-184.98,144.028-184.98,143.326Zm1,7.375a9.785,9.785,0,0,1,1.639-1.363,31.887,31.887,0,0,0,1.564,4.893,7.968,7.968,0,0,0-1.436,1.239A28.5,28.5,0,0,1-183.978,150.7Zm4.492,9.351a5.511,5.511,0,0,1,1.138-1.065,31.282,31.282,0,0,0,2.915,3.99,3.428,3.428,0,0,0-.8.855A29.463,29.463,0,0,1-179.485,160.052Zm11.365,9.253a.293.293,0,0,1-.034-.138.5.5,0,0,1,.049-.2c.394.21.792.407,1.19.589l-.091-.023-.016.061-.028.053c.307.142.622.274.939.4C-166.786,169.83-167.457,169.584-168.12,169.305Zm25.377-3.861c.037-.044.073-.089.106-.134.253-.194.5-.394.747-.6.065-.036.128-.073.19-.11Q-142.21,165.037-142.743,165.444Zm2.552-2.046q.333-.325.655-.662A5.927,5.927,0,0,1-140.19,163.4Zm1.388-1.654c.032-.038.065-.074.1-.112-.034.038-.068.076-.1.114Z" transform="translate(185.536 -117.691)" fill="#fff"/>
        <path id="Path_34" data-name="Path 34" d="M-185.66,143.469A25.671,25.671,0,0,1-159.99,117.8a25.547,25.547,0,0,1,12.6,3.3,24.75,24.75,0,0,0-13.861-4.219,24.869,24.869,0,0,0-24.869,24.869,24.875,24.875,0,0,0,1.011,7.036A25.772,25.772,0,0,1-185.66,143.469Z" transform="translate(186.119 -116.881)" fill="#fff"/>
      </g>
      <path id="Path_35" data-name="Path 35" d="M-178.427,123.86h6.469s2.23.1,3.48-3.2l1.292-3.462c.081-.21.159-.419.234-.628l4.13-11.062c1.187-3.127,1.44-3.712,2.181-5.651,0,0,2.156-1.924,8.057-.513,1.1.262,2.021.465,2.746.606l.014,0,.129.025.023,0c3.29.729,4.25-.065,5.308-2.756a7.856,7.856,0,0,0,.518-2.344,2.6,2.6,0,0,0,.02-.667,7.949,7.949,0,0,0-.25-2.009c-.644,3.169-3.645,3.306-5,3.2q-1.239-.149-3.1-.463a21.441,21.441,0,0,0-7.156-.231,11.583,11.583,0,0,0-3.9,1.456,13.19,13.19,0,0,0-3.755,3.036l-.012.012a10.49,10.49,0,0,1-.432,4.593,100.841,100.841,0,0,1-4.563,11.11S-175.729,123.3-178.427,123.86Z" transform="translate(181.693 -92.207)" fill="#fff"/>
    </g>
  </g>
</svg>
